<?xml version="1.0" standalone="no"?>
<!DOCTYPE svg PUBLIC "-//W3C//DTD SVG 1.1//EN" "http://www.w3.org/Graphics/SVG/1.1/DTD/svg11.dtd" >
<svg xmlns="http://www.w3.org/2000/svg">
<metadata>Generated by IcoMoon</metadata>
<defs>
<font id="iconfont" horiz-adv-x="1024">
<font-face units-per-em="1024" ascent="960" descent="-64" />
<missing-glyph horiz-adv-x="1024" />
<glyph unicode="&#x20;" horiz-adv-x="512" d="" />
<glyph unicode="&#xe900;" glyph-name="add" horiz-adv-x="835" d="M512 960h-245.76c-85.71 0-141.484-6.582-167.319-19.746-34.967-17.816-61.358-44.208-79.174-79.174-13.164-25.836-19.746-81.609-19.746-167.319v-491.52c0-85.711 6.582-141.485 19.746-167.322 17.82-34.968 44.213-61.361 79.178-79.174 25.834-13.165 81.606-19.745 167.316-19.745h302.474c85.711 0 141.485 6.58 167.322 19.745 34.968 17.818 61.356 44.205 79.174 79.174 13.165 25.836 19.745 81.61 19.745 167.322v434.806c0 5.223-0.998 10.247-2.998 15.072s-4.842 9.084-8.539 12.777l-283.569 283.569c-3.692 3.693-7.95 6.539-12.776 8.538-4.824 1.999-9.848 2.998-15.071 2.998zM587.618 597.658h168.566v-395.418c0-73.103-3.723-116.957-11.164-131.566-10.067-19.761-24.98-34.674-44.746-44.741-14.604-7.441-58.457-11.164-131.56-11.164h-302.474c-73.103 0-116.957 3.723-131.562 11.164-19.76 10.067-34.676 24.98-44.747 44.746-7.441 14.604-11.162 58.457-11.162 131.56v491.52c0 73.103 3.721 116.956 11.161 131.559 10.070 19.764 24.987 34.681 44.751 44.75 14.603 7.441 58.456 11.161 131.559 11.161h206.375v-168.57c0-32.772 3.148-55.337 9.444-67.694 8.521-16.72 21.141-29.342 37.86-37.863 12.36-6.297 34.925-9.446 67.698-9.446v0zM551.385 712.661v112.872l149.105-149.105h-112.871c-20.165 0-30.809 0.285-31.928 0.856-1.523 0.776-2.673 1.924-3.445 3.444-0.572 1.124-0.861 11.768-0.861 31.933v0zM378.092 164.431v102.4h-102.4c-10.876 0-20.159 3.844-27.849 11.537-7.691 7.688-11.535 16.972-11.535 27.848s3.845 20.16 11.535 27.848c7.691 7.693 16.973 11.537 27.849 11.537h102.4v102.4c0 10.876 3.845 20.159 11.535 27.849s16.973 11.535 27.849 11.535c10.876 0 20.159-3.845 27.849-11.535s11.535-16.973 11.535-27.849v-102.4h102.4c10.875 0 20.16-3.844 27.848-11.537 7.693-7.688 11.537-16.972 11.537-27.848s-3.844-20.16-11.537-27.848c-7.688-7.693-16.972-11.537-27.848-11.537h-102.4v-102.4c0-10.875-3.845-20.16-11.535-27.848-7.691-7.693-16.973-11.537-27.849-11.537s-20.159 3.844-27.849 11.537c-7.691 7.688-11.535 16.972-11.535 27.848v0z" />
<glyph unicode="&#xe901;" glyph-name="work-to" d="M800 960c6.816 0.032 13.408-2.080 18.848-6.016l3.872-3.264 192-192c4.8-4.832 7.904-11.040 8.896-17.664l0.384-5.056v-704c0-50.24-38.56-91.456-87.712-95.648l-8.288-0.352h-320l-0.032 64h320.032c15.904 0 29.088 11.616 31.584 26.816l0.416 5.184v672h-128c-32.992 0-60.16 24.96-63.616 57.024l-0.384 6.976v128h-480c-15.904 0-29.088-11.616-31.584-26.816l-0.416-5.184-0.064-253.984-63.936-0.032v253.984c0 50.24 38.56 91.456 87.712 95.648l8.288 0.352h512zM288 512c159.072 0 288-128.928 288-288s-128.928-288-288-288c-159.072 0-288 128.928-288 288s128.928 288 288 288zM288 448c-123.712 0-224-100.288-224-224s100.288-224 224-224c123.712 0 224 100.288 224 224s-100.288 224-224 224zM310.72 342.72l96-96c11.040-11.104 12.256-28.256 3.68-40.704l-3.68-4.416-96-96-45.12 45.12 41.28 41.28h-146.88v64h146.88l-41.28 41.6 45.12 45.12z" />
<glyph unicode="&#xe902;" glyph-name="calendar" d="M872 960c16.576 0 30.016-13.44 30.016-30.016v0l-0.032-53.984 32.032-0.032c49.696 0 90.016-40.288 90.016-90.016v-760c0-49.696-40.288-90.016-90.016-90.016h-844c-49.696 0-90.016 40.288-90.016 90.016v760c0 49.696 40.288 90.016 90.016 90.016l31.968 0.032 0.032 53.984c0 14.72 10.624 26.976 24.608 29.504l5.408 0.48c16.576 0 30.016-13.44 30.016-30.016v0-53.984h180l0.032 53.984c0 14.72 10.624 26.976 24.608 29.504l5.408 0.48c16.576 0 30.016-13.44 30.016-30.016v0l-0.064-53.984h180.064v53.984c0 14.72 10.624 26.976 24.608 29.504l5.408 0.48c16.576 0 30.016-13.44 30.016-30.016v0l-0.032-53.984h180l0.032 53.984c0 14.72 10.624 26.976 24.608 29.504zM964 576h-904v-549.984c0-16.576 13.44-30.016 30.016-30.016h844.512c16.32 0.288 29.472 13.6 29.472 30.016v549.984zM742.272 504.896l59.712-53.248-313.088-350.912-204.416 195.872 55.36 57.76 144.576-138.528 257.92 289.088zM121.984 816l-32.48-0.032c-16.32-0.288-29.472-13.6-29.472-29.984v-150.016h904v150.016c0 16.576-13.44 30.016-30.016 30.016h-32.032l0.032-54.016c0-14.72-10.624-26.976-24.608-29.504l-5.408-0.48c-16.576 0-30.016 13.44-30.016 30.016v0l-0.032 54.016h-180l0.032-54.016c0-14.72-10.624-26.976-24.608-29.504l-5.408-0.48c-16.576 0-30.016 13.44-30.016 30.016v0 54.016h-180.064l0.064-54.016c0-14.72-10.624-26.976-24.608-29.504l-5.408-0.48c-16.576 0-30.016 13.44-30.016 30.016v0l-0.032 54.016h-180v-54.016c0-14.72-10.624-26.976-24.608-29.504l-5.408-0.48c-16.576 0-30.016 13.44-30.016 30.016v0l-0.032 54.016z" />
<glyph unicode="&#xe903;" glyph-name="list-workflow" d="M800 960c123.712 0 224-100.288 224-224v0-576c0-123.712-100.288-224-224-224v0h-576c-123.712 0-224 100.288-224 224v0 576c0 123.712 100.288 224 224 224v0zM800 896h-576c-88.352 0-160-71.648-160-160v0-576c0-88.352 71.648-160 160-160v0h576c88.352 0 160 71.648 160 160v0 576c0 88.352-71.648 160-160 160v0zM288 288c35.36 0 64-28.64 64-64s-28.64-64-64-64c-35.36 0-64 28.64-64 64s28.64 64 64 64zM800 256v-64h-384v64h384zM288 512c35.36 0 64-28.64 64-64s-28.64-64-64-64c-35.36 0-64 28.64-64 64s28.64 64 64 64zM800 480v-64h-384v64h384zM288 736c35.36 0 64-28.64 64-64s-28.64-64-64-64c-35.36 0-64 28.64-64 64s28.64 64 64 64zM800 704v-64h-384v64h384z" />
<glyph unicode="&#xe904;" glyph-name="plus" d="M984.001 488h-432.001v432c0 22.090-17.908 40-40 40s-40-17.91-40-40v-432h-432c-22.092 0-40-17.909-40-40s17.908-40 40-40h432v-432.001c0-22.090 17.907-39.999 40-39.999s40 17.909 40 39.999v432.001h432.001c22.090 0 39.999 17.91 39.999 40s-17.909 40-39.999 40z" />
<glyph unicode="&#xe905;" glyph-name="apps" d="M716.8 960c169.661 0 307.2-137.539 307.2-307.2v-409.6c0-169.661-137.539-307.2-307.2-307.2h-409.6c-169.661 0-307.2 137.539-307.2 307.2v409.6c0 169.661 137.539 307.2 307.2 307.2h409.6zM716.8 891.733h-409.6c-131.959 0-238.933-106.974-238.933-238.933v-409.6c0-131.959 106.974-238.933 238.933-238.933h409.6c131.959 0 238.933 106.974 238.933 238.933v409.6c0 131.959-106.974 238.933-238.933 238.933zM750.933 277.333c18.852 0 34.133-15.281 34.133-34.133s-15.281-34.133-34.133-34.133h-494.933c-18.852 0-34.133 15.281-34.133 34.133s15.281 34.133 34.133 34.133h494.933zM529.067 482.133c18.852 0 34.133-15.281 34.133-34.133s-15.281-34.133-34.133-34.133h-273.067c-18.852 0-34.133 15.281-34.133 34.133s15.281 34.133 34.133 34.133h273.067zM768 686.933c18.852 0 34.133-15.281 34.133-34.133s-15.281-34.133-34.133-34.133h-512c-18.852 0-34.133 15.281-34.133 34.133s15.281 34.133 34.133 34.133h512z" />
<glyph unicode="&#xe906;" glyph-name="add-template" horiz-adv-x="910" d="M0 929.882c0 16.633 13.484 30.118 30.118 30.118h346.353c16.633 0 30.118-13.484 30.118-30.118v-195.765c0-16.633-13.484-30.118-30.118-30.118h-346.353c-16.633 0-30.118 13.484-30.118 30.118v195.765zM346.353 764.235v135.53h-286.118v-135.53h286.118zM527.059 960h346.35c16.634 0 30.123-13.484 30.123-30.118v-195.765c0-16.633-13.488-30.118-30.123-30.118h-346.35c-16.634 0-30.118 13.484-30.118 30.118v195.765c0 16.633 13.484 30.118 30.118 30.118zM843.292 764.235v135.53h-286.116v-135.53h286.116zM30.118 402.823h346.353c16.633 0 30.118-13.482 30.118-30.116v-195.766c0-16.634-13.484-30.117-30.118-30.117h-346.353c-16.633 0-30.118 13.483-30.118 30.117v195.766c0 16.634 13.484 30.116 30.118 30.116zM346.353 207.058v135.532h-286.118v-135.532h286.118zM527.059 402.823h346.35c16.634 0 30.123-13.482 30.123-30.116v-195.766c0-16.634-13.488-30.117-30.123-30.117h-346.35c-16.634 0-30.118 13.483-30.118 30.117v195.766c0 16.634 13.484 30.116 30.118 30.116zM843.292 207.058v135.532h-286.116v-135.532h286.116zM30.118 598.588h346.353c16.633 0 30.118 13.484 30.118 30.118s-13.484 30.118-30.118 30.118h-346.353c-16.633 0-30.118-13.484-30.118-30.118s13.484-30.118 30.118-30.118zM225.882 493.177h-195.765c-16.633 0-30.118 13.484-30.118 30.118s13.484 30.118 30.118 30.118h195.765c16.633 0 30.118-13.484 30.118-30.118s-13.484-30.118-30.118-30.118zM527.059 598.588h346.35c16.634 0 30.123 13.484 30.123 30.118s-13.488 30.118-30.123 30.118h-346.35c-16.634 0-30.118-13.484-30.118-30.118s13.484-30.118 30.118-30.118zM752.942 493.177h-225.882c-16.634 0-30.118 13.484-30.118 30.118s13.484 30.118 30.118 30.118h225.882c16.634 0 30.117-13.484 30.117-30.118s-13.483-30.118-30.117-30.118zM30.118 41.409h346.353c16.633 0 30.118 13.488 30.118 30.123 0 16.629-13.484 30.117-30.118 30.117h-346.353c-16.633 0-30.118-13.488-30.118-30.117 0-16.634 13.484-30.123 30.118-30.123zM225.882-64h-195.765c-16.633 0-30.118 13.483-30.118 30.117s13.484 30.117 30.118 30.117h195.765c16.633 0 30.118-13.483 30.118-30.117s-13.484-30.117-30.118-30.117zM527.059 41.409h346.35c16.634 0 30.123 13.488 30.123 30.123 0 16.629-13.488 30.117-30.123 30.117h-346.35c-16.634 0-30.118-13.488-30.118-30.117 0-16.634 13.484-30.123 30.118-30.123zM752.942-64h-225.882c-16.634 0-30.118 13.483-30.118 30.117s13.484 30.117 30.118 30.117h225.882c16.634 0 30.117-13.483 30.117-30.117s-13.483-30.117-30.117-30.117z" />
<glyph unicode="&#xe907;" glyph-name="unview" horiz-adv-x="1365" d="M852.161 436.5l77.551 77.548c5.643-21.111 8.95-43.181 8.95-66.048 0-141.161-114.832-255.997-255.999-255.997-22.87 0-44.935 3.3-66.046 8.95l77.546 77.542c84.786 5.782 152.218 73.215 157.998 158.004zM1359.949 468.724c-5.241 9.44-79.674 139.861-225.165 250.388l-62.092-62.090c106.086-78.005 173.313-168.981 199.778-209.088-50.578-77.001-248.952-341.264-589.806-341.264-51.111 0-98.648 6.538-143.37 16.968l-70.11-70.11c64.453-19.767 135.305-32.191 213.48-32.191 446.644 0 668.077 389.371 677.286 405.938 7.176 12.896 7.176 28.553 0 41.448zM1182.161 887.165l-938.662-938.66c-8.334-8.328-19.259-12.5-30.167-12.5s-21.833 4.172-30.167 12.5c-16.666 16.672-16.666 43.668 0 60.325l119.426 119.428c-193.064 116.553-291.165 288.127-297.212 299.018-7.176 12.896-7.176 28.564 0 41.46 9.204 16.553 230.638 405.928 677.284 405.928 115.492 0 215.517-26.347 301.039-65.301l138.126 138.131c16.672 16.674 43.668 16.674 60.332 0 16.657-16.671 16.665-43.669 0-60.331zM366.221 191.882l108.018 108.022c-29.833 41.856-47.574 92.895-47.574 148.096 0 141.161 114.833 255.999 255.999 255.999 55.203 0 106.238-17.739 148.092-47.563l87.351 87.35c-69.010 27.636-147.433 45.546-235.443 45.546-340.85 0-539.229-264.265-589.793-341.27 32.111-48.66 124.397-171.837 273.351-256.18zM536.183 361.857l232.625 232.626c-25.376 14.988-54.589 24.183-86.145 24.183-94.101 0-170.666-76.565-170.666-170.666 0-31.553 9.195-60.768 24.185-86.143v0z" />
<glyph unicode="&#xe908;" glyph-name="export-excel" horiz-adv-x="905" d="M833.485 618.795v-289.864c0-19.718-15.997-35.721-35.721-35.721-19.706 0-35.721 16.003-35.721 35.721v273.86h-154.795c-72.346 0-130.971 58.629-130.971 130.975v154.792h-345.305c-15.806 0-30.903-6.288-42.097-17.434-11.153-11.191-17.431-26.288-17.431-42.101v-762.049c0-15.809 6.278-30.908 17.431-42.098 11.194-11.15 26.291-17.436 42.097-17.436h428.653c19.72 0 35.723-16.003 35.723-35.721s-16.003-35.721-35.723-35.721h-428.653c-34.723 0-68.056 13.813-92.625 38.343-24.542 24.576-38.347 57.913-38.347 92.632v762.049c0 34.719 13.806 68.059 38.347 92.636 24.57 24.528 57.903 38.34 92.625 38.34h361.305c22.097 0 43.292-8.764 58.916-24.434l257.863-257.858c15.667-15.622 24.428-36.816 24.428-58.913zM547.722 838.073v-104.306c0-32.864 26.668-59.534 59.527-59.534h104.306l-163.833 163.84zM782.985 150.329l-34.276 34.287c-13.961 13.909-13.961 36.58 0 50.489 13.904 13.955 36.585 13.955 50.483 0l94.487-94.481c6.918-6.514 11.253-15.764 11.253-26.021 0-10.251-4.335-19.502-11.264-26.021l-94.475-94.475c-13.898-13.955-36.58-13.955-50.483 0-13.961 13.909-13.961 36.58 0 50.483l34.276 34.298h-151.916c-19.723 0-35.721 15.997-35.721 35.715s15.997 35.726 35.721 35.726h151.916z" />
<glyph unicode="&#xe909;" glyph-name="back" d="M736 480h-338.75l131.875 131.871c12.514 12.514 12.514 32.767 0 45.25-12.514 12.51-32.778 12.51-45.25 0l-181.028-181.024c-7.653-7.649-10.042-18.177-8.292-28.097-1.75-9.92 0.639-20.448 8.319-28.129l181.028-181.023c12.514-12.51 32.764-12.51 45.25 0 12.514 12.516 12.514 32.768 0 45.249l-131.903 131.903h338.75c17.664 0 32 14.337 32 32s-14.336 32-32 32zM512 960c-282.778 0-512-229.215-512-512 0-282.749 229.222-512 512-512s512 229.251 512 512c0 282.785-229.222 512-512 512zM512 0c-247.431 0-448 200.579-448 448 0 247.423 200.569 448 448 448 247.433 0 448-200.577 448-448 0-247.421-200.567-448-448-448z" />
<glyph unicode="&#xe90a;" glyph-name="additional" d="M34.292 959.999c-18.972 0.073-34.361-15.312-34.292-34.266v-955.73c0.069-18.853 15.431-34.076 34.292-34.002h613.36c44.544 1.035 44.544 67.282 0 68.267h-579.346v887.466h751.321v-511.999c0.984-44.516 67.317-44.516 68.306 0v545.999c0.068 18.851-15.155 34.192-34.014 34.266h-819.628zM682.945 618.6c44.538 1.032 44.538 67.276 0 68.267h-479.751c-46.25 0-42.778-69.448 1.722-68.267h478.029zM682.945 413.732c46.552-1.032 46.552 69.3 0 68.268h-479.751c-46.139-3.329-42.778-69.452 1.722-68.268h478.029zM853.373 277.669c-18.859-0.262-33.968-15.684-33.746-34.537v-102.263h-102.337c-44.527-1.035-44.527-67.282 0-68.267h102.337v-102.599c0.984-44.516 67.317-44.516 68.306 0v102.599h102.662c44.544 1.030 44.544 67.277 0 68.267h-102.662v102.263c0.222 19.166-15.377 34.759-34.56 34.537zM204.917 208.868h341.68c44.53 1.030 44.53 67.277 0 68.267h-343.402c-46.139-3.328-42.778-69.45 1.722-68.267z" />
<glyph unicode="&#xe90b;" glyph-name="choice" d="M571.872 659.968c24.928 0.576 48.512-9.056 65.76-26.336 16.736-16.736 26.368-39.456 26.368-63.648v0l-0.064-113.888c9.408 3.328 19.52 5.152 30.048 5.152 24.16 0 46.88-9.6 63.648-26.368 4.512-4.512 8.512-9.472 11.968-14.784 13.056 7.488 28.256 11.744 44.416 11.744 24.16 0 46.88-9.6 63.648-26.368 6.752-6.752 12.352-14.496 16.64-22.912 11.936 5.952 25.44 9.28 39.744 9.28 24.16 0 46.88-9.6 63.648-26.368s26.368-39.456 26.368-63.648v0-50.464c0-75.456-6.656-140.544-18.592-195.968-9.12-42.336-20.672-76.256-33.248-102.432-4.992-10.4-15.52-17.024-27.040-17.024v0h-473.952c-11.008 0-21.152 6.048-26.4 15.744-18.144 33.568-33.376 71.872-41.952 113.056v0l-0.288 1.376c-8.352 38.784-27.456 75.072-55.168 105.152v0l-18.464 20.032c-33.664 36.672-31.2 93.632 5.44 127.232 16.8 15.424 38.464 23.648 60.832 23.648v0h0.928c24.672-0.256 48.352-10.56 65.408-29.152v0l22.528-24.576v280.288c0 49.152 38.848 90.048 87.872 91.2zM573.248 600c-16.064-0.384-29.248-14.272-29.248-31.2v0-357.376c0-27.36-33.632-40.448-52.096-20.288v0l-74.624 81.408c-5.76 6.304-13.728 9.728-22.144 9.728-7.488 0-14.656-2.72-20.256-7.872-12.192-11.2-13.024-30.176-1.824-42.4v0l18.432-19.968c35.328-38.304 59.648-84.896 70.080-134.944v0l0.416-1.92c5.952-27.712 15.616-54.272 27.2-78.4v0l0.352-0.704h436l0.224 0.544c7.68 19.328 14.88 43.072 21.024 71.552 11.008 51.168 17.248 112.064 17.248 183.328v0 50.464c0 8.096-3.168 15.584-8.8 21.216s-13.12 8.8-21.216 8.8c-16.544 0-30.016-13.44-30.016-30.016v0-66.464c0-16.576-13.44-30.016-30.016-30.016s-30.016 13.44-30.016 30.016v0 106.464c0 8.096-3.168 15.584-8.8 21.216s-13.12 8.8-21.216 8.8c-16.544 0-30.016-13.44-30.016-30.016v0-106.464c0-16.576-13.44-30.016-30.016-30.016s-30.016 13.44-30.016 30.016v0 135.872c0 8.096-3.168 15.584-8.8 21.216s-13.12 8.8-21.216 8.8c-16.576 0-30.016-13.44-30.016-30.016l-0.032 0.224 0.032-136.096c0-14.72-10.624-26.976-24.608-29.504l-5.408-0.48c-16.576 0-30.016 13.44-30.016 30.016v0 334.592c0 8.064-3.168 15.584-8.8 21.216-5.792 5.792-13.568 8.992-21.952 8.768zM120 573.6c66.272 0 120-53.728 120-120s-53.728-120-120-120c-66.272 0-120 53.728-120 120s53.728 120 120 120zM120 513.6c-33.152 0-60-26.848-60-60s26.848-60 60-60c33.152 0 60 26.848 60 60s-26.848 60-60 60zM384.096 778.656c23.328-62.048-8.064-131.232-70.080-154.56s-131.232 8.064-154.56 70.080c-23.328 62.048 8.064 131.232 70.080 154.56s131.232-8.064 154.56-70.080zM919.616 848.736c62.048-23.328 93.408-92.512 70.080-154.56s-92.512-93.408-154.56-70.080c-62.048 23.328-93.408 92.512-70.080 154.56s92.512 93.408 154.56 70.080zM250.656 792.576c-31.008-11.648-46.72-46.272-35.040-77.28s46.272-46.72 77.28-35.040c31.008 11.648 46.72 46.272 35.040 77.28s-46.272 46.72-77.28 35.040zM821.216 757.536c-11.648-31.008 4.032-65.6 35.040-77.28s65.6 4.032 77.28 35.040c11.648 31.008-4.032 65.6-35.040 77.28s-65.6-4.032-77.28-35.040zM574.56 960c66.272 0 120-53.728 120-120s-53.728-120-120-120c-66.272 0-120 53.728-120 120s53.728 120 120 120zM574.56 900c-33.152 0-60-26.848-60-60s26.848-60 60-60c33.152 0 60 26.848 60 60s-26.848 60-60 60z" />
<glyph unicode="&#xe90c;" glyph-name="currency" horiz-adv-x="1152" d="M192.928 237.472l3.648-1.28c24.608-23.392 48-48.128 72.128-72.064 7.968-6.176 19.2-20.192 4.544-25.92-18.016-2.56-36.48-0.672-54.72-1.184 9.28-49.92 40.192-95.776 84.16-121.568 57.184-35.488 133.856-34.272 190.144 2.464 15.264 7.232 25.824 27.296 44.896 24.576 19.648-1.568 30.528-27.36 17.952-42.56-41.984-41.12-101.056-63.712-159.616-63.936-28.544-0.064-57.088 5.312-83.744 15.52-78.304 28.896-136.96 102.976-147.904 185.6-12.96 0.032-25.92 0.064-38.848 0.096-10.848-2.304-28.416 3.744-21.056 17.568 22.592 23.072 45.92 45.696 68.832 68.576 6.944 5.28 13.024 18.432 23.232 12.832zM763.328 665.984c151.168 9.76 295.008-80.128 343.2-224.832 55.072-165.376-35.68-343.68-203.776-403.68s-356.192 17.312-426.944 176.928c-6.336 14.304 0.128 31.040 14.432 37.408 6.88 3.040 14.688 3.232 21.696 0.544s12.672-8.096 15.712-14.976c58.368-131.712 215.072-196.832 356.064-146.496s214.4 196.16 169.056 332.416c-45.376 136.256-194.88 215.008-340.192 177.44-15.168-3.904-30.624 5.184-34.528 20.352s5.184 30.624 20.352 34.528c21.632 5.6 43.392 9.024 64.96 10.4zM846.848 533.664c11.712 0.064 23.872-0.64 36.48-2.176 14.624-1.792 25.024-15.104 23.232-29.728s-15.104-25.056-29.76-23.232c-67.488 8.288-109.024-10.656-135.168-40.064-8-8.992-14.528-19.52-19.616-31.008v0l126.592-0.512c14.752-0.064 26.656-12.064 26.592-26.784s-12.064-26.656-26.816-26.56v0l-139.392 0.544c-0.64-9.024-0.576-18.112 0.192-27.040v0l120-0.544c14.72-0.064 26.624-12.064 26.56-26.784s-12.064-26.656-26.816-26.56v0l-105.152 0.48c10.080-20.512 24.896-37.888 43.68-50.56 32.128-21.696 76.736-29.536 140.16-4.256 13.696 5.44 29.216-1.216 34.656-14.912s-1.216-29.216-14.912-34.688c-75.712-30.176-142.432-22.304-189.728 9.6-33.472 22.592-56.736 57.312-69.856 95.072v0l-40.736 0.192c-14.752 0.064-26.656 12.064-26.56 26.816s12.064 26.624 26.816 26.56v0l28.864-0.128c-0.864 9.024-1.152 18.048-0.896 27.008v0l-27.776 0.096c-14.752 0.064-26.656 12.064-26.592 26.784s12.064 26.656 26.816 26.592v0l36.416-0.16c7.552 23.872 19.936 46.336 37.632 66.24 28.576 32.128 71.008 54.016 124.48 58.752 6.688 0.608 13.536 0.928 20.576 0.96zM325.216 931.328c179.264 0 325.216-145.92 325.216-325.216s-145.952-325.216-325.216-325.216c-179.264 0-325.216 145.92-325.216 325.216s145.92 325.216 325.216 325.216zM325.216 874.656c-148.64 0-268.544-119.904-268.544-268.544s119.904-268.544 268.544-268.544c148.64 0 268.544 119.904 268.544 268.544s-119.904 268.544-268.544 268.544zM325.216 824.128c15.648 0 28.352-12.704 28.352-28.352v0-13.216c24.288-7.456 45.568-24.48 57.504-47.104 7.328-11.2 9.504-27.040 0.224-37.856-11.392-15.36-37.664-13.376-46.592 3.584-6.784 20.672-30.368 34.208-51.456 27.104-25.184-6.624-37.6-40.064-21.632-61.056 28.704-21.888 57.376-43.808 86.080-65.696 27.616-18.144 45.728-50.24 44.992-83.488 0.32-41.632-29.472-80.672-69.12-92.384v0-9.216c0-15.648-12.704-28.352-28.352-28.352s-28.352 12.704-28.352 28.352v0 9.376c-25.92 8.032-48.608 26.624-59.872 51.68-7.264 12.064-7.488 29.12 3.616 38.976 13.376 13.664 39.136 8.128 45.664-9.888 7.168-24.736 39.52-36.544 60.832-21.952 22.848 13.408 25.248 49.12 4.448 65.504-33.408 25.664-67.040 51.104-100.448 76.736-22.24 24-28.704 60.64-18.912 91.584 9.024 30.656 34.592 54.784 64.704 64.16v0 13.152c0 15.648 12.704 28.352 28.352 28.352zM747.104 960c28.544 0.064 57.088-5.312 83.744-15.52 78.304-28.896 136.96-102.976 147.904-185.6 12.96-0.032 25.92-0.064 38.848-0.096 10.848 2.304 28.416-3.744 21.056-17.6-22.592-23.072-45.92-45.696-68.832-68.576-6.944-5.28-13.024-18.432-23.232-12.832-24.608 23.392-48 48.128-72.128 72.064-7.968 6.176-19.2 20.192-4.544 25.92 18.016 2.56 36.48 0.672 54.688 1.184-9.28 49.92-40.192 95.776-84.16 121.568-57.216 35.488-133.856 34.272-190.144-2.464-15.264-7.232-25.824-27.296-44.896-24.576-19.648 1.568-30.528 27.36-17.952 42.56 41.984 41.12 101.056 63.712 159.616 63.936z" />
<glyph unicode="&#xe90d;" glyph-name="yes-no" d="M632.48 568.48h301.184c49.888 0 90.336-40.448 90.336-90.368v-451.776c0-49.888-40.448-90.336-90.336-90.336h-451.776c-49.888 0-90.336 40.448-90.336 90.336v301.184h-301.184c-49.888 0-90.368 40.448-90.368 90.336v451.776c0 49.888 40.448 90.368 90.368 90.368h451.776c49.888 0 90.336-40.448 90.336-90.368v-301.184zM90.368 899.776c-16.64 0-30.112-13.472-30.112-30.112v-451.776c0-16.64 13.472-30.112 30.112-30.112h451.776c16.64 0 30.112 13.472 30.112 30.112v451.776c0 16.64-13.472 30.112-30.112 30.112h-451.776zM632.48 508.224v-90.368c0-49.888-40.448-90.336-90.336-90.336h-90.368v-301.184c0-16.64 13.472-30.112 30.112-30.112h451.776c16.64 0 30.112 13.472 30.112 30.112v451.776c0 16.64-13.472 30.112-30.112 30.112h-301.184zM273.632 643.776l-53.984 53.984c-11.776 11.776-11.776 30.816 0 42.592s30.816 11.776 42.592 0l53.984-53.984 53.984 53.984c11.776 11.776 30.816 11.776 42.592 0s11.776-30.816 0-42.592l-53.984-53.984 53.984-53.984c11.776-11.776 11.776-30.816 0-42.592s-30.816-11.776-42.592 0l-53.984 53.984-53.984-53.984c-11.776-11.776-30.816-11.776-42.592 0s-11.776 30.816 0 42.592l53.984 53.984zM623.648 273.536l53.984-53.984 129.28 129.28c11.776 11.776 30.816 11.776 42.592 0s11.776-30.816 0-42.592l-150.592-150.592c-11.776-11.776-30.816-11.776-42.592 0l-75.296 75.296c-11.776 11.776-11.776 30.816 0 42.592s30.816 11.776 42.592 0z" />
<glyph unicode="&#xe90e;" glyph-name="detail-list" horiz-adv-x="853" d="M810 960v-904l-120.051 0.036 0.052-120.036h-690v904l119.979 0.021 0.022 119.979h690zM225 780h-165v-784h570v379c0 49.208-39.493 89.193-88.512 89.988l-226.488 0.012v225c0 49.705-40.294 90-90 90zM570 116v-60h-450v60h450zM750 900h-570l-0.003-59.979 45.004-0.021c38.235 0 73.129-14.306 99.621-37.857l6.444-6.078 320.25-320.521c23.529-26.032 38.054-60.357 38.665-98.064l-0.031-261.427 60.051-0.053v784zM570 236v-60h-450v60h450zM570 356v-60h-450v60h450zM517.234 525.028l-142.279 142.279 0.046-142.307 142.234 0.028z" />
<glyph unicode="&#xe90f;" glyph-name="relate" d="M420 960l-0.032-180h186.176c14.4 100.64 100.16 178.272 204.416 179.968h6.944c114.528-1.856 206.528-95.296 206.528-209.984 0-105.792-78.24-193.312-180-207.872l-0.032-214.112 75.136-0.032 105.088-182.016-105.088-182.016h-210.144l-87.808 152.064h-201.152l0.032-79.264c0-55.68-45.12-100.8-100.8-100.8h-218.4c-55.68 0-100.8 45.12-100.8 100.8v218.4c0 55.68 45.12 100.8 100.8 100.8h77.152v184.032l-177.952-0.032v420h420zM319.2 296h-218.4c-22.528 0-40.8-18.272-40.8-40.8v-218.4c0-22.528 18.272-40.8 40.8-40.8h218.4c22.528 0 40.8 18.272 40.8 40.8v218.4c0 22.528-18.272 40.8-40.8 40.8zM884.448 268h-140.864l-70.432-122.016 70.432-122.016h140.864l70.432 122.016-70.432 122.016zM606.144 720l-186.176 0.032 0.032-180.032-182.048 0.032v-184.032h81.248c55.68 0 100.8-45.12 100.8-100.8l-0.032-79.2h201.152l87.808 152 75.072 0.032v214.112c-91.968 13.152-164.704 85.888-177.888 177.888zM360 900h-300v-300h300v300zM813.92 900.032c-82.752-0.032-149.92-67.2-149.92-150.048s67.168-150.016 150.016-150.016c82.848 0 150.016 67.168 150.016 150.016l-0.032 2.464c-1.28 79.968-65.216 144.896-145.056 147.456l-5.024 0.128z" />
<glyph unicode="&#xe910;" glyph-name="sample-download" horiz-adv-x="768" d="M758.414 662.451c5.723-5.718 9.239-13.58 9.364-22.163 0.040-2.424 0.028-556.349 0.028-627.42v-7.384c0-38.315-31.169-69.484-69.49-69.484h-628.83c-38.32 0-69.486 31.169-69.486 69.484v884.773c0 38.312 31.167 69.483 69.486 69.483 375.125 0 384.819 1.441 391.305-2.458 0.639-0.389 1.25-0.826 2.181-1.326 0.417-0.219 0.736-0.361 1.042-0.514 4.57-2.226 8.056-6.642 294.401-292.99zM698.317-0.011c3.044 0 5.501 2.463 5.501 5.495v602.346h-218.443c-38.306 0-69.486 31.17-69.486 69.482v218.445h-346.403c-3.042 0-5.5-2.466-5.5-5.497v-884.776c0-3.032 2.458-5.495 5.5-5.495h628.83zM479.875 850.514v-173.202c0-2.653 1.889-4.875 4.389-5.389l0.056-0.031c0.028-0.132 1.167-0.080 174.266-0.080l-178.711 178.702zM502.5 374.517c-12.5 12.493-32.75 12.493-45.25 0l-41.361-41.358v194.693c0 17.666-14.32 31.993-31.986 31.993s-32-14.326-32-31.993v-194.693l-41.361 41.358c-12.486 12.493-32.75 12.493-45.236 0-12.5-12.493-12.5-32.751 0-45.244 93.347-93.355 98.111-99.231 104.264-102.030 0.639-0.296 1.306-0.558 2.083-0.876 11.791-4.887 25.597-2.344 34.875 6.935l95.972 95.972c12.486 12.493 12.486 32.751 0 45.244zM543.861 95.96h-319.917c-17.666 0-32 14.325-32 31.989 0 17.675 14.334 31.994 32 31.994h319.917c17.667 0 31.985-14.319 31.985-31.994 0-17.664-14.318-31.989-31.985-31.989z" />
<glyph unicode="&#xe911;" glyph-name="cancle" d="M809.904 549.024c-18.113 0-32.768 14.678-32.768 32.764v312.68h-387.747v-293.993c0-18.101-14.653-32.764-32.764-32.764h-323.861c-13.222 0-25.153 7.951-30.236 20.163s-2.347 26.288 6.958 35.681l323.875 326.757c3.070 3.087 6.584 5.431 10.348 7.038 3.958 1.712 8.319 2.649 12.917 2.649h453.279c18.108 0 32.762-14.681 32.762-32.766v-345.446c0-18.101-14.683-32.764-32.762-32.764zM111.389 633.243h212.5v214.382l-212.5-214.382zM480.611-64h-447.847c-18.083 0-32.764 14.666-32.764 32.751v538.648c0 18.108 14.667 32.764 32.764 32.764s32.764-14.679 32.764-32.764v-505.886h415.083c18.097 0 32.764-14.66 32.764-32.762 0-18.108-14.681-32.751-32.764-32.751zM428.208 233.893c0-164.25 133.625-297.893 297.904-297.893s297.887 133.643 297.887 297.893c0 164.256-133.609 297.895-297.887 297.895-164.279 0-297.904-133.639-297.904-297.895zM493.736 233.893c0 128.137 104.234 232.364 232.376 232.364 128.125 0 232.374-104.227 232.374-232.364s-104.249-232.38-232.374-232.38c-128.142 0-232.376 104.243-232.376 232.38zM613.763 121.572c6.406-6.406 14.791-9.603 23.194-9.603 8.38 0 16.765 3.18 23.154 9.603l66.002 65.997 65.997-66.014c6.417-6.389 14.791-9.603 23.182-9.603s16.777 3.197 23.165 9.603c12.806 12.783 12.806 33.53 0 46.325l-66.014 66.025 66.031 66.031c12.806 12.783 12.806 33.536 0 46.33-12.766 12.823-33.542 12.823-46.336 0l-66.025-66.025-66.002 65.997c-12.777 12.811-33.553 12.811-46.347 0-12.789-12.783-12.789-33.536 0-46.33l66.002-66.002-66.002-66.002c-12.789-12.783-12.789-33.536 0-46.33z" />
<glyph unicode="&#xe912;" glyph-name="refuse" d="M867.104 816.448c-0.416 0.448-0.768 0.896-1.216 1.344-0.928 0.928-1.888 1.792-2.88 2.592-91.712 86.528-215.264 139.616-351.008 139.616-282.304 0-512-229.696-512-512.032 0-135.68 53.088-259.168 139.52-350.88 0.832-1.056 1.696-2.048 2.656-3.008 0.512-0.48 1.024-0.928 1.536-1.408 93.184-96.544 223.808-156.704 368.256-156.704 282.304 0 511.968 229.664 511.968 512 0 144.544-60.224 275.264-156.864 368.48zM512 889.984c105.216 0 201.952-36.992 277.92-98.624l-621.28-621.28c-61.632 75.968-98.592 172.704-98.624 277.92 0 243.712 198.272 441.984 441.952 441.984zM512 6.048c-113.312 0-216.768 42.88-295.072 113.248l623.808 623.808c70.368-78.304 113.248-181.792 113.248-295.104 0-243.68-198.24-441.952-441.952-441.952z" />
<glyph unicode="&#xe913;" glyph-name="embedding" horiz-adv-x="1256" d="M82.456 703.658l173.886 173.886c4.529 4.529 8.019 9.752 10.47 15.67s3.677 12.079 3.677 18.484c0 6.405-1.225 12.567-3.677 18.484s-5.941 11.141-10.47 15.67c-4.529 4.529-9.752 8.019-15.67 10.47s-12.079 3.677-18.484 3.677c-6.405 0-12.567-1.226-18.485-3.677s-11.141-5.941-15.67-10.47l-173.886-173.886c-4.529-4.529-8.019-9.752-10.47-15.67s-3.677-12.079-3.677-18.485c0-6.405 1.226-12.566 3.677-18.484s5.941-11.141 10.47-15.67c4.529-4.529 9.753-8.019 15.67-10.47s12.079-3.677 18.484-3.677c6.405 0 12.567 1.225 18.484 3.677s11.141 5.941 15.67 10.47v0zM256.342 598.084l-173.886 173.886c-4.529 4.529-9.752 8.019-15.67 10.47s-12.079 3.677-18.484 3.677c-6.405 0-12.567-1.226-18.484-3.677s-11.141-5.942-15.67-10.47c-9.431-9.432-14.147-20.816-14.147-34.155s4.716-24.723 14.147-34.155l173.886-173.885c4.529-4.529 9.752-8.019 15.67-10.471s12.079-3.676 18.485-3.677c6.405 0 12.566 1.226 18.484 3.677s11.141 5.942 15.67 10.471c9.431 9.431 14.147 20.816 14.147 34.154s-4.716 24.723-14.147 34.155v0zM1241.679 192.345l-173.885 173.888c-9.426 9.431-20.812 14.147-34.152 14.147s-24.726-4.716-34.152-14.147c-9.433-9.432-14.149-20.816-14.149-34.155s4.716-24.723 14.149-34.155l173.885-173.883c9.433-9.433 20.812-14.149 34.152-14.149s24.726 4.716 34.152 14.149c4.535 4.528 8.023 9.747 10.472 15.67 2.456 5.916 3.677 12.077 3.677 18.482s-1.221 12.565-3.677 18.482c-2.449 5.916-5.937 11.142-10.472 15.67v0zM1067.794-49.844l173.885 173.885c4.535 4.528 8.023 9.754 10.472 15.67 2.456 5.916 3.677 12.077 3.677 18.482s-1.221 12.572-3.677 18.489c-2.449 5.916-5.937 11.142-10.472 15.67-9.426 9.433-20.812 14.142-34.152 14.142s-24.719-4.709-34.152-14.142l-173.885-173.885c-4.528-4.535-8.023-9.754-10.472-15.67-2.449-5.923-3.677-12.084-3.677-18.489s1.228-12.565 3.677-18.482c2.449-5.916 5.944-11.142 10.472-15.67s9.754-8.016 15.67-10.472c5.916-2.449 12.077-3.677 18.482-3.677s12.565 1.228 18.482 3.677c5.923 2.456 11.142 5.944 15.67 10.472v0zM1207.541 786.117h-1159.24c-13.338 0-24.723-4.716-34.154-14.147s-14.147-20.816-14.147-34.155c0-13.338 4.716-24.723 14.147-34.155s20.816-14.147 34.154-14.147h1159.24c13.34 0 24.719 4.716 34.152 14.147s14.149 20.816 14.149 34.155c0 13.338-4.716 24.723-14.149 34.155s-20.812 14.147-34.152 14.147v0zM1207.541 206.495h-1159.24c-13.338 0-24.723-4.709-34.154-14.142s-14.147-20.819-14.147-34.159c0-13.333 4.716-24.719 14.147-34.152s20.816-14.149 34.154-14.149h1159.24c13.34 0 24.719 4.716 34.152 14.149s14.149 20.819 14.149 34.152c0 13.34-4.716 24.726-14.149 34.159s-20.812 14.142-34.152 14.142v0z" />
<glyph unicode="&#xe914;" glyph-name="agree" horiz-adv-x="1279" d="M1259.027 849.613l-829.395-893.197c-12.020-12.963-28.889-20.354-46.57-20.418-16.96-0.092-33.261 6.56-45.303 18.506l-318.994 318.998c-25.020 25.018-25.020 65.578 0 90.596 25.016 25.017 65.577 25.017 90.593 0l273.704-272.424 782.822 844.708c15.017 18.515 39.095 27.116 62.441 22.3 23.353-4.818 42.066-22.25 48.526-45.199 6.46-22.946-0.412-47.582-17.824-63.871z" />
<glyph unicode="&#xe915;" glyph-name="process-author" d="M1024 810v-694.575l-100-180-100 180v694.575h200zM509.999 960l-0.002-120h210.004v-904.002h-720.001v904.002h209.996l0.002 120h300.001zM449.997 900h-180l0.002-120h-209.999v-784.002h600.001v784.002h-210.002l-0.002 120zM597.999 115.998v-60h-477.705v60h477.705zM963.998 629.999h-80.001v-499.025l40.002-72 39.999 71.998v499.027zM360.001 720c66.274 0 120-53.726 120-120 0-25.184-7.759-48.556-21.015-67.857l-0.527-0.753 0.403-0.189c29.83-14.302 50.557-44.557 51.127-79.713l0.012-1.488v-152.44h-300.001v152.44c0 35.789 20.888 66.698 51.139 81.201l0.402 0.189-0.525 0.753c-12.908 18.793-20.603 41.446-20.999 65.873l-0.016 1.984c0 66.274 53.726 120 120 120zM420.001 479.999h-120c-16.569 0-30-13.431-30-30v-92.44h180v92.44c0 16.36-13.092 29.66-29.372 29.994l-0.627 0.006zM360.001 659.999c-33.137 0-60-26.863-60-60s26.863-60 60-60c33.137 0 60 26.863 60 60s-26.863 60-60 60zM963.998 750h-80.001v-60h80.001v60z" />
<glyph unicode="&#xe916;" glyph-name="add-new" d="M551.36 960l261.248-261.248v-284.256c118.912-14.208 211.424-115.68 211.424-238.368 0-132.384-107.712-240.096-240.096-240.096-43.552 0-84.416 11.648-119.68 32v0h-664.256v992h551.36zM783.936 356.16c-99.296 0-180.064-80.768-180.064-180.064s80.768-180.064 180.064-180.064c99.296 0 180.064 80.768 180.064 180.064s-80.768 180.064-180.064 180.064zM508.928 899.968h-448.896v-871.936h535.040c-32.064 40.832-51.2 92.256-51.2 148.064 0 121.76 91.104 222.656 208.736 238.048v0 244.16h-243.68v241.664zM812.608 268.128v-61.024h61.344v-60.032h-61.344v-61.024h-60.032v61.024h-58.688v60.032h58.688v61.024h60.032zM389.792 326.816v-60.032h-240.096v60.032h240.096zM509.824 446.88v-60.032h-360.16v60.032h360.16zM662.56 566.912v-60.032h-512.864v60.032h512.864zM389.792 686.976v-60.032h-240.096v60.032h240.096zM568.928 857.536v-139.2h139.2l-139.2 139.2z" />
<glyph unicode="&#xe917;" glyph-name="accept" d="M329.143 960h438.857c9.7 0 19.001-3.853 25.862-10.711l219.426-219.429c6.855-6.859 10.712-16.16 10.712-25.86v-658.284c0-60.598-49.118-109.716-109.716-109.716h-402.284v73.142h402.284c20.201 0 36.574 16.373 36.574 36.574v621.712h-109.716c-60.592 0-109.716 49.121-109.716 109.714v109.715h-402.284c-20.198 0-36.571-16.374-36.571-36.572v-329.143h-73.143v329.143c0 60.593 49.121 109.714 109.714 109.714zM899.14 740.572l-94.566 94.566v-57.995c0-20.197 16.373-36.571 36.568-36.571h57.998zM190.172 78.626c7.121-9.489 18.408-14.939 30.272-14.609 11.865 0.324 22.831 6.394 29.415 16.27l109.716 164.568c11.201 16.805 6.659 39.515-10.145 50.716s-39.512 6.662-50.714-10.143l-81.043-121.56-23.843 31.79c-12.118 16.156-35.042 19.433-51.2 7.316-16.158-12.123-19.433-35.044-7.314-51.2l54.857-73.148zM0 192c0 141.386 114.615 256 256 256s256-114.614 256-256c0-141.386-114.615-256-256-256s-256 114.614-256 256zM256 374.858c-100.989 0-182.857-81.869-182.857-182.858s81.868-182.858 182.857-182.858c100.989 0 182.857 81.869 182.857 182.858s-81.869 182.858-182.857 182.858z" />
<glyph unicode="&#xe918;" glyph-name="addPro" d="M984 488h-432v432c0 22.080-17.92 40-40 40s-40-17.92-40-40v-432h-432c-22.080 0-40-17.92-40-40s17.92-40 40-40h432v-432c0-22.080 17.92-40 40-40s40 17.92 40 40v432h432c22.080 0 40 17.92 40 40s-17.92 40-40 40z" />
<glyph unicode="&#xe919;" glyph-name="datetime" d="M724 960c16.576 0 30.016-13.44 30.016-30.016v0-30.016h60c49.632 0 90.016-40.384 90.016-90.016v0-379.616c72.32-48.48 120-130.976 120-224.384 0-148.864-121.12-269.984-270.016-269.984-93.408 0-175.904 47.68-224.384 120v0h-499.616c-16.576 0-30.016 13.44-30.016 30.016v0 724c0 49.632 40.384 90.016 90.016 90.016v0h60v30.016c0 16.576 13.44 30.016 30.016 30.016s30.016-13.44 30.016-30.016v0-30.016h120v30.016c0 16.576 13.44 30.016 30.016 30.016s30.016-13.44 30.016-30.016v0-30.016h124v30.016c0 16.576 13.44 30.016 30.016 30.016s30.016-13.44 30.016-30.016v0-30.016h120v30.016c0 16.576 13.44 30.016 30.016 30.016zM754.016 416c-115.808 0-210.016-94.208-210.016-210.016s94.208-210.016 210.016-210.016c115.808 0 210.016 94.208 210.016 210.016s-94.208 210.016-210.016 210.016zM844 656h-784v-540h439.456c-9.984 28.16-15.456 58.464-15.456 90.016 0 148.864 121.12 270.016 270.016 270.016 31.552 0 61.824-5.472 90.016-15.456v0 195.456zM754.016 356c16.576 0 30.016-13.44 30.016-30.016v0-90.016h90.016c16.576 0 30.016-13.44 30.016-30.016s-13.44-30.016-30.016-30.016v0h-120c-16.576 0-30.016 13.44-30.016 30.016v0 120c0 16.576 13.44 30.016 30.016 30.016zM150.016 840h-60c-16.544 0-30.016-13.472-30.016-30.016v0-94.016h784v94.016c0 16.544-13.472 30.016-30.016 30.016v0h-60v-30.016c0-16.576-13.44-30.016-30.016-30.016s-30.016 13.44-30.016 30.016v0 30.016h-120v-30.016c0-16.576-13.44-30.016-30.016-30.016s-30.016 13.44-30.016 30.016v0 30.016h-124v-30.016c0-16.576-13.44-30.016-30.016-30.016s-30.016 13.44-30.016 30.016v0 30.016h-120v-30.016c0-16.576-13.44-30.016-30.016-30.016s-30.016 13.44-30.016 30.016v0 30.016z" />
<glyph unicode="&#xe91a;" glyph-name="addUG" d="M512 960c282.336 0 512-229.664 512-512s-229.664-512-512-512c-282.336 0-512 229.664-512 512s229.664 512 512 512zM512 896c-247.040 0-448-200.96-448-448s200.96-448 448-448c247.040 0 448 200.96 448 448s-200.96 448-448 448zM512 704c17.664 0 32-14.336 32-32l-0.032-191.968 192.032-0.032c17.664 0 32-14.336 32-32s-14.336-32-32-32l-192.032 0.032 0.032-192.032c0-17.664-14.336-32-32-32s-32 14.336-32 32l-0.032 192.032-191.968-0.032c-17.664 0-32 14.336-32 32s14.336 32 32 32l191.968 0.032 0.032 191.968c0 17.664 14.336 32 32 32z" />
<glyph unicode="&#xe91b;" glyph-name="add-link" d="M219.424 813.728v-73.152h-146.272v-731.424h731.424v365.728h73.152v-438.848h-877.728v877.728h219.424zM550.4 886.848c47.552 0 93.248-18.272 128-53.024s53.024-80.448 53.024-128c0-47.552-18.272-93.248-53.024-128l-20.128-20.128-51.2 51.2 20.128 20.128c20.128 20.128 31.072 47.552 31.072 76.8s-10.976 56.672-31.072 76.8c-20.128 20.128-47.552 31.072-76.8 31.072s-54.848-10.976-76.8-31.072l-186.528-186.528c-9.152-9.152-18.272-21.952-23.776-34.752s-7.328-27.424-7.328-42.048c0-14.624 3.648-27.424 7.328-42.048s12.8-25.6 23.776-34.752 47.552-31.072 76.8-31.072c29.248 0 54.848 10.976 76.8 31.072l51.2-51.2c-16.448-16.448-36.576-31.072-58.528-38.4-21.952-9.152-45.728-14.624-69.472-14.624-36.576 0-71.328 10.976-100.576 31.072s-53.024 47.552-65.824 80.448c-12.8 32.928-16.448 69.472-10.976 104.224 7.328 34.752 23.776 67.648 49.376 93.248l186.528 186.528c34.752 34.752 80.448 53.024 128 53.024zM842.976 960c47.552 0 93.248-18.272 128-53.024s53.024-80.448 53.024-128c0-47.552-18.272-93.248-53.024-128l-186.528-186.528c-16.448-16.448-36.576-31.072-58.528-40.224-21.952-7.328-45.728-12.8-69.472-12.8-36.576 0-71.328 10.976-100.576 31.072s-53.024 47.552-65.824 80.448c-12.8 32.928-16.448 69.472-10.976 104.224 7.328 34.752 23.776 67.648 49.376 93.248l20.128 20.128 51.2-51.2-20.128-20.128c-9.152-9.152-18.272-21.952-23.776-34.752s-7.328-27.424-7.328-42.048c0-14.624 3.648-27.424 7.328-42.048 5.472-12.8 12.8-25.6 23.776-34.752 20.128-20.128 47.552-31.072 76.8-31.072s54.848 10.976 76.8 31.072l186.528 186.528c20.128 20.128 31.072 47.552 31.072 76.8s-10.976 56.672-31.072 76.8c-20.128 20.128-47.552 31.072-76.8 31.072s-54.848-10.976-76.8-31.072l-51.2 51.2c34.752 34.752 80.448 53.024 128 53.024z" />
<glyph unicode="&#xe91c;" glyph-name="deactiveLi" d="M874.112 810.016c199.968-199.968 199.968-524.224 0-724.192-95.872-96.32-226.304-150.272-362.208-149.792-282.784 0.096-511.968 229.376-511.872 512.16 0.032 135.712 53.952 265.856 149.888 361.824 200 200 524.224 200 724.192 0zM511.872 900.032c-249.216 0-452-202.784-452-452s202.784-452 452-452c249.216 0 452 202.752 452 452s-202.752 452-452 452zM752.896 478.048c16.576 0 30.016-13.44 30.016-30.016s-13.44-30.016-30.016-30.016h-482.016c-16.576 0-30.016 13.44-30.016 30.016s13.44 30.016 30.016 30.016h482.016z" />
<glyph unicode="&#xe91d;" glyph-name="unlock" d="M733.056 960c150.336 0 272.64-122.304 272.64-272.672v0-45.216c0-4.704-1.12-9.376-3.232-13.568v0l-18.336-36.16 14.688-17.76c4.448-5.376 6.88-12.16 6.88-19.136v0-53.568c0-16.576-13.44-30.016-30.016-30.016v0h-118.784c-16.576 0-30.016 13.44-30.016 30.016v0 185.248c0 51.808-42.112 93.984-93.888 93.984s-93.888-42.144-93.888-93.984v0-126.048h13.44c60.896 0 110.464-49.536 110.464-110.432v0-404.224c0-60.896-49.536-110.432-110.464-110.432v0h-542.176c-60.896 0-110.432 49.536-110.432 110.432v0 404.224c0 60.896 49.536 110.432 110.432 110.432v0h349.984v126.24c0 150.368 122.304 272.672 272.64 272.672zM652.608 501.088h-542.176c-27.808 0-50.432-22.624-50.432-50.432v0-404.224c0-27.808 22.624-50.432 50.432-50.432v0h542.176c27.808 0 50.464 22.624 50.464 50.432v0 404.224c0 27.808-22.624 50.432-50.464 50.432v0zM381.536 428.352c61.696 0 111.872-50.176 111.872-111.872 0-27.136-9.792-53.024-27.328-73.248v0l18.112-140.608c1.088-8.544-1.536-17.184-7.232-23.648s-13.92-10.176-22.528-10.176v0h-145.824c-8.64 0-16.832 3.712-22.528 10.176s-8.32 15.104-7.232 23.648v0l18.112 140.608c-17.536 20.224-27.328 46.112-27.328 73.248 0 61.696 50.176 111.872 111.872 111.872zM381.504 368.352c-28.608 0-51.872-23.296-51.872-51.904 0-15.264 6.688-29.664 18.368-39.584 7.744-6.56 11.648-16.64 10.336-26.72v0l-15.616-121.408h77.6l-15.616 121.408c-1.312 10.080 2.592 20.128 10.336 26.72 11.68 9.888 18.368 24.32 18.368 39.584 0 28.608-23.264 51.904-51.872 51.904zM733.056 900c-117.248 0-212.64-95.392-212.672-212.672v0-126.24h58.784v126.048c0 84.896 69.024 153.984 153.888 153.984s153.888-69.056 153.888-153.984v0-155.232h58.784v12.768l-20.352 24.608c-7.616 9.184-9.024 22.048-3.616 32.672v0l23.968 47.296v38.048c0 117.28-95.392 212.672-212.64 212.672z" />
<glyph unicode="&#xe91e;" glyph-name="exit" d="M568.576 448l443.712 443.712c15.616 15.616 15.616 40.96 0 56.576s-40.96 15.616-56.576 0l-443.712-443.712-443.712 443.712c-15.616 15.616-40.96 15.616-56.576 0s-15.616-40.96 0-56.576l443.712-443.712-443.712-443.712c-15.616-15.616-15.616-40.96 0-56.576 7.808-7.808 18.048-11.712 28.288-11.712s20.48 3.904 28.288 11.712l443.712 443.712 443.712-443.712c7.808-7.808 18.048-11.712 28.288-11.712s20.48 3.904 28.288 11.712c15.616 15.616 15.616 40.96 0 56.576l-443.712 443.712z" />
<glyph unicode="&#xe91f;" glyph-name="delete" d="M512 870.4c-233.285 0-422.4-189.115-422.4-422.4 0-233.283 189.115-422.4 422.4-422.4 233.283 0 422.4 189.117 422.4 422.4 0 233.285-189.117 422.4-422.4 422.4zM12.8 448c0 275.701 223.499 499.2 499.2 499.2s499.2-223.499 499.2-499.2c0-275.702-223.498-499.2-499.2-499.2s-499.2 223.498-499.2 499.2zM321.93 638.070c14.996 14.996 39.31 14.996 54.306 0l135.764-135.764 135.767 135.764c14.991 14.996 39.306 14.996 54.303 0s14.996-39.31 0-54.306l-135.762-135.764 135.762-135.767c14.996-14.991 14.996-39.306 0-54.303s-39.311-14.996-54.303 0l-135.767 135.762-135.764-135.762c-14.996-14.996-39.31-14.996-54.306 0s-14.996 39.311 0 54.303l135.764 135.767-135.764 135.764c-14.996 14.996-14.996 39.31 0 54.306z" />
<glyph unicode="&#xe920;" glyph-name="save" d="M1014.112 745.312l-204.8 204.8c-6.432 6.4-15.168 9.952-24.224 9.888h-682.656c-56.544 0-102.4-45.856-102.4-102.4v-819.2c0-56.544 45.856-102.4 102.4-102.4h819.2c56.544 0 102.4 45.856 102.4 102.4v682.656c0.064 9.088-3.52 17.792-9.888 24.224zM648.544 891.744v-204.8h-273.056v204.8h273.056zM238.944 4.256v238.944c0 18.848 15.296 34.144 34.144 34.144h477.856c18.848 0 34.144-15.296 34.144-34.144v-238.944h-546.144zM955.744 38.4c0-18.848-15.296-34.144-34.144-34.144h-68.256v238.944c0 56.544-45.856 102.4-102.4 102.4h-477.856c-56.544 0-102.4-45.856-102.4-102.4v-238.944h-68.256c-18.848 0-34.144 15.296-34.144 34.144v819.2c0 18.848 15.296 34.144 34.144 34.144h204.8v-204.8c0-37.696 30.56-68.256 68.256-68.256h273.056c37.696 0 68.256 30.56 68.256 68.256v204.8h54.272l184.672-184.672v-668.672z" />
<glyph unicode="&#xe921;" glyph-name="save-next" horiz-adv-x="1216" d="M966.432 960c32.48-0.064 59.584-0.352 82.208-2.208 28-2.272 52.576-7.104 75.328-18.72 36.128-18.4 65.504-47.776 83.904-83.904 11.584-22.752 16.416-47.328 18.72-75.328 2.208-27.168 2.208-60.736 2.208-102.368v0-394.976c0-41.632 0-75.2-2.208-102.368-2.272-28-7.104-52.576-18.72-75.328-18.4-36.128-47.776-65.504-83.904-83.904-22.752-11.584-47.328-16.416-75.328-18.72-27.168-2.208-60.736-2.208-102.368-2.208h-683.904c-32.48 0.064-59.584 0.352-82.208 2.208-28 2.272-52.576 7.104-75.328 18.72-36.128 18.4-65.504 47.776-83.904 83.904-11.584 22.752-16.416 47.328-18.72 75.328-2.208 27.168-2.208 60.736-2.208 102.368v415.104c0.064 32.48 0.352 59.584 2.208 82.208 2.272 28 7.104 52.576 18.72 75.328 18.4 36.128 47.776 65.504 83.904 83.904 22.752 11.584 47.328 16.416 75.328 18.72 27.168 2.208 60.736 2.208 102.368 2.208zM975.008 883.168h-721.184c-28.064-0.096-49.632-0.48-67.392-1.92-23.232-1.888-36.576-5.44-46.688-10.592-21.664-11.040-39.296-28.672-50.336-50.336-5.152-10.112-8.704-23.456-10.592-46.688-1.44-17.76-1.824-39.328-1.92-67.392v-452.384c0.096-28.096 0.48-49.632 1.92-67.392 1.888-23.232 5.44-36.576 10.592-46.688 11.040-21.664 28.672-39.296 50.336-50.336 10.112-5.152 23.456-8.704 46.688-10.592 23.68-1.92 54.112-1.952 97.76-1.952h676.256c35.392 0.032 61.28 0.256 81.984 1.952 23.232 1.888 36.576 5.44 46.688 10.592 21.664 11.040 39.296 28.672 50.336 50.336 5.152 10.112 8.704 23.456 10.592 46.688 1.92 23.68 1.952 54.112 1.952 97.76v0 391.68c0 43.648-0.032 74.080-1.952 97.76-1.888 23.232-5.44 36.576-10.592 46.688-11.040 21.664-28.672 39.296-50.336 50.336-10.112 5.152-23.456 8.704-46.688 10.592-17.76 1.44-39.328 1.824-67.392 1.92zM598.336 703.232l268.8-192c10.080-7.2 16.096-18.848 16.096-31.232s-5.984-24.032-16.096-31.232l-268.8-192c-17.248-12.32-41.248-8.32-53.568 8.928s-8.32 41.248 8.928 53.568l171.296 122.336h-340.96c-21.216 0-38.4 17.184-38.4 38.4s17.184 38.4 38.4 38.4h340.96l-171.296 122.336c-17.248 12.32-21.248 36.32-8.928 53.568s36.32 21.248 53.568 8.928z" />
<glyph unicode="&#xe922;" glyph-name="download" d="M833.344 960c50.912 0 98.816-19.84 134.816-55.84s55.84-83.904 55.84-134.816v0-642.656c0-105.12-85.536-190.656-190.656-190.656v0h-642.656c-105.12 0-190.656 85.536-190.656 190.656v0 642.656c0 105.12 85.536 190.656 190.656 190.656v0zM833.344 900h-642.656c-72.064 0-130.656-58.624-130.656-130.656v0-642.656c0-72.064 58.624-130.656 130.656-130.656v0h642.656c72.064 0 130.656 58.624 130.656 130.656v0 642.656c0 34.912-13.6 67.712-38.272 92.384s-57.504 38.272-92.384 38.272v0zM801.216 188.8c16.576 0 30.016-13.44 30.016-30.016s-13.44-30.016-30.016-30.016v0h-578.4c-16.576 0-30.016 13.44-30.016 30.016s13.44 30.016 30.016 30.016v0zM512 767.2c16.576 0 30.016-13.44 30.016-30.016v0-320.032l107.84 107.84c11.712 11.712 30.72 11.712 42.432 0s11.712-30.72 0-42.432v0l-159.040-159.040c-5.632-5.632-13.248-8.8-21.216-8.8s-15.584 3.168-21.216 8.8v0l-159.040 159.040c-11.712 11.712-11.712 30.72 0 42.432s30.72 11.712 42.432 0v0l107.84-107.84v320.032c0 16.576 13.44 30.016 30.016 30.016z" />
<glyph unicode="&#xe923;" glyph-name="lock" horiz-adv-x="864" d="M411.936 960c177.76 0 321.856-144.096 321.856-321.856v0l0.096-121.28c12.96-3.328 25.216-6.688 36.768-10.080l2.112-0.608c8.16-2.4 15.424-4.672 21.696-6.72l3.328-1.088 2.016-0.672 4.128-1.44 19.904-7.104v-484.224l-20.448-7.328-2.944-1.024-2.304-0.768-4.8-1.568c-6.016-1.952-12.896-4.096-20.576-6.336-24.512-7.232-52.416-14.464-83.2-21.184-87.904-19.2-181.664-30.72-277.6-30.72s-189.728 11.52-277.6 30.72c-29.92 6.528-57.088 13.536-81.088 20.544l-2.112 0.608c-7.68 2.272-14.56 4.384-20.576 6.336l-2.208 0.736c-1.28 0.416-2.496 0.832-3.616 1.184l-3.744 1.28c-0.448 0.16-0.8 0.288-1.056 0.384l-19.904 7.104v484.224l20.672 7.392 2.72 0.928c0.832 0.288 1.728 0.576 2.656 0.896l2.24 0.736c6.528 2.144 14.176 4.512 22.816 7.072 12.16 3.584 25.12 7.168 38.88 10.688l0.096 121.28c0 177.76 144.096 321.856 321.856 321.856zM411.936 498.080c-91.296 0-180.864-11.008-264.8-29.344-29.344-6.4-55.84-13.28-79.040-20.096l-3.936-1.184c-0.864-0.256-1.696-0.512-2.528-0.768l-1.6-0.48v-398.336l0.352-0.096c2.464-0.736 5.024-1.536 7.712-2.304l4-1.184c22.208-6.464 47.36-12.896 75.040-18.944 83.936-18.336 173.504-29.344 264.8-29.344s180.864 11.008 264.8 29.344c29.344 6.4 55.84 13.28 79.040 20.096l1.344 0.384c1.312 0.384 2.624 0.768 3.904 1.152l2.848 0.864v398.336l-3.36 1.024-4.704 1.408c-23.2 6.848-49.696 13.696-79.040 20.096-83.936 18.336-173.504 29.344-264.8 29.344zM411.936 392.032c49.696 0 90.016-40.288 90.016-90.016 0-39.168-25.024-72.48-59.936-84.864l-0.064-85.152h-60v85.152c-34.944 12.352-60 45.696-60 84.864 0 49.696 40.288 90.016 90.016 90.016zM411.936 332.032c-16.576 0-30.016-13.44-30.016-30.016s13.44-30.016 30.016-30.016 30.016 13.44 30.016 30.016c0 16.576-13.44 30.016-30.016 30.016zM411.936 900c-144.608 0-261.856-117.248-261.856-261.856v0l-0.064-107.488 13.792 2.784c21.792 4.256 43.872 8.032 66.272 11.264v93.408c0 100.288 81.536 181.856 181.856 181.856s181.856-81.536 181.856-181.856v0l0.032-93.44c27.104-3.936 53.824-8.64 80.032-14.048l-0.064 107.456c0 144.608-117.248 261.856-261.856 261.856zM411.936 760c-67.168 0-121.856-54.688-121.856-121.856v0l-0.032-86.144c40.032 3.936 80.768 6.048 121.888 6.048s81.824-2.112 121.824-6.048v86.144c0 67.168-54.688 121.856-121.856 121.856z" />
<glyph unicode="&#xe924;" glyph-name="lookup" d="M999.808 77.312l-278.016 278.016c108.64 168.48 72.704 391.776-83.328 517.696s-381.856 113.888-523.616-27.872c-141.76-141.76-153.792-367.616-27.872-523.616s349.184-191.936 517.696-83.328l278.016-278.016c20.928-20.896 51.392-29.024 79.936-21.344s50.848 29.984 58.464 58.56c7.616 28.576-0.544 59.040-21.472 79.904h0.16zM151.52 326.496c-132.512 132.992-132.256 348.192 0.576 480.864s348.032 132.672 480.864 0c132.832-132.672 133.088-347.872 0.576-480.864-63.872-63.968-150.592-99.936-240.992-99.936s-177.12 35.968-240.992 99.936v0zM963.648-3.648c-5.728-5.728-13.504-8.96-21.632-8.96s-15.904 3.232-21.632 8.96l-272.8 272.8c7.648 6.592 36.672 34.752 43.264 43.424l272.8-272.096c5.952-5.792 9.344-13.76 9.344-22.080s-3.36-16.288-9.344-22.080v0z" />
<glyph unicode="&#xe925;" glyph-name="up-light" d="M985.088 243.456l-42.592-42.592-430.496 430.432-430.432-430.432-42.592 42.592 473.024 473.024 473.088-473.024z" />
<glyph unicode="&#xe926;" glyph-name="left-light" d="M313.632 449.76l430.432-430.496-42.592-42.592-473.024 473.088 473.088 473.024 42.592-42.592-430.496-430.432z" />
<glyph unicode="&#xe927;" glyph-name="right-light" d="M795.52 449.696l-473.088-473.088-42.592 42.592 430.432 430.432-430.432 430.56 42.592 42.592 473.088-473.088z" />
<glyph unicode="&#xe928;" glyph-name="invalid-file" horiz-adv-x="967" d="M793.856 693.284l-256 256c-6.857 6.859-16.158 10.713-25.856 10.715h-402.286c-60.593 0-109.714-49.121-109.714-109.714v-804.57c0-60.592 49.121-109.716 109.714-109.716h365.714c20.198 0 36.572 16.373 36.572 36.574 0 20.196-16.374 36.568-36.572 36.568h-365.714c-20.198 0-36.572 16.373-36.572 36.574v804.57c0 20.198 16.374 36.572 36.572 36.572h365.714v-146.286c0-60.593 49.121-109.714 109.714-109.714h146.284v-109.715c0-20.198 16.378-36.571 36.574-36.571s36.574 16.373 36.574 36.571v146.286c-0.006 9.699-3.857 18.999-10.718 25.856zM548.572 740.572v94.574l131.143-131.145h-94.572c-20.197 0-36.57 16.374-36.57 36.572zM694.858-64c-141.386 0-256.001 114.614-256.001 256s114.615 256 256.001 256c141.386 0 256-114.614 256-256-0.159-141.318-114.682-255.841-256-256zM694.858 374.858c-100.989 0-182.858-81.869-182.858-182.858s81.869-182.858 182.858-182.858c100.989 0 182.858 81.869 182.858 182.858-0.125 100.938-81.92 182.738-182.858 182.858zM694.858 155.426c-20.201 0-36.574 16.378-36.574 36.574v109.716c0 20.196 16.373 36.568 36.574 36.568 20.196 0 36.568-16.373 36.568-36.568v-109.716c0-20.196-16.373-36.574-36.568-36.574zM694.858 45.716c20.196 0 36.568 16.373 36.568 36.568 0 20.201-16.373 36.574-36.568 36.574-20.201 0-36.574-16.373-36.574-36.574 0-20.196 16.373-36.568 36.574-36.568z" />
<glyph unicode="&#xe929;" glyph-name="eye" d="M14.016 665.696h80c7.744 0 14.016 6.272 14.016 14.016v172.288h174.592c7.744 0 14.016 6.272 14.016 14.016v80c0 7.744-6.272 14.016-14.016 14.016h-268.576c-7.744 0-14.016-6.272-14.016-14.016v-266.304c0-7.744 6.272-14.016 14.016-14.016zM741.44 960h268.576c7.744 0 14.016-6.272 14.016-14.016v-266.304c0-7.744-6.272-14.016-14.016-14.016h-80c-7.744 0-14.016 6.272-14.016 14.016v172.288h-174.56c-7.744 0-14.016 6.272-14.016 14.016v80c0 7.744 6.272 14.016 14.016 14.016zM28 932h240.576v-52h-174.56c-7.744 0-14.016-6.272-14.016-14.016v-172.288h-52v238.304zM944 693.696h52v238.304h-240.576v-52h174.56c7.744 0 14.016-6.272 14.016-14.016v-172.288zM964.448 456.512c-8.256 10.752-204.64 263.488-452.448 263.488s-444.224-252.736-452.448-263.488c-3.84-5.024-3.84-12 0-17.024 8.256-10.752 204.64-263.488 452.448-263.488s444.192 252.736 452.448 263.488c3.84 5.024 3.84 12 0 17.024zM512 204c-209.152 0-386.752 199.936-423.328 244 36.576 44.096 213.984 244 423.328 244 209.152 0 386.752-199.936 423.328-244-36.576-44.096-213.984-244-423.328-244zM332.672 448c0 99.040 80.288 179.328 179.328 179.328 99.008-0.128 179.232-80.352 179.328-179.328 0-99.040-80.288-179.328-179.328-179.328s-179.328 80.288-179.328 179.328zM372.192 390.080c23.424-56.544 78.592-93.408 139.808-93.408v0c83.552 0.096 151.232 67.776 151.328 151.328 0 61.216-36.864 116.384-93.408 139.808s-121.632 10.496-164.928-32.8-56.224-108.384-32.8-164.928zM512 541.952c-51.872 0-93.952-42.048-93.952-93.952s42.048-93.952 93.952-93.952c51.872 0 93.952 42.048 93.952 93.952-0.064 51.872-42.080 93.888-93.952 93.952zM512 382.048c-26.688 0-50.72 16.064-60.928 40.704s-4.576 52.992 14.304 71.872c18.848 18.848 47.232 24.512 71.872 14.304s40.704-34.24 40.704-60.928c-0.032-36.416-29.536-65.888-65.952-65.952zM108 44h174.592c7.744 0 14.016-6.272 14.016-14.016v-80c0-7.744-6.272-14.016-14.016-14.016h-268.576c-7.744 0-14.016 6.272-14.016 14.016v270.848c0 7.744 6.272 14.016 14.016 14.016h80c7.744 0 14.016-6.272 14.016-14.016v-176.832zM1010.016 234.816h-80c-7.744 0-14.016-6.272-14.016-14.016v-176.832h-174.56c-7.744 0-14.016-6.272-14.016-14.016v-80c0-7.744 6.272-14.016 14.016-14.016h268.576c7.744 0 14.016 6.272 14.016 14.016v270.848c0 7.744-6.272 14.016-14.016 14.016zM28-36h240.576v52h-174.56c-7.744 0-14.016 6.272-14.016 14.016v176.832h-52v-242.848zM996-36h-240.576v52h174.56c7.744 0 14.016 6.272 14.016 14.016v176.832h52v-242.848z" />
<glyph unicode="&#xe92a;" glyph-name="search" d="M1013.792-3.648l-276.576 276.576c0 0 0 0.032 0 0.064s0 0 0 0c59.2 69.824 93.6 157.28 97.824 248.736 11.904 247.744-185.248 447.168-433.088 437.984-218.304-8.256-393.408-183.36-401.664-401.664-9.152-247.872 190.272-444.992 438.016-433.088 91.424 4.224 178.912 38.624 248.704 97.824 0 0 0.032 0 0.064 0l276.576-276.576c13.952-13.728 36.416-13.568 50.144 0.384 13.6 13.792 13.6 35.968 0 49.76zM79.968 461.76c-27.232 121.536 8.352 241.472 92.576 325.728s204.192 119.808 325.728 92.576c114.976-25.76 231.584-142.336 257.344-257.344 27.232-121.536-8.32-241.504-92.576-325.76s-204.224-119.808-325.76-92.576c-114.976 25.76-231.552 142.368-257.312 257.344z" />
<glyph unicode="&#xe92b;" glyph-name="seen" horiz-adv-x="1536" d="M768 0c-502.464 0-751.584 438.048-761.952 456.672-8.064 14.496-8.064 32.128 0 46.656 10.368 18.624 259.488 456.672 761.952 456.672s751.584-438.048 761.952-456.672c8.064-14.496 8.064-32.128 0-46.656-10.368-18.624-259.488-456.672-761.952-456.672zM104.48 480.064c57.088-86.528 281.28-384.064 663.52-384.064 383.456 0 606.624 297.312 663.52 383.936-57.088 86.528-281.28 384.064-663.52 384.064-383.456 0-606.624-297.312-663.52-383.936zM768 192c-158.816 0-288 129.184-288 288s129.184 288 288 288c158.816 0 288-129.184 288-288s-129.184-288-288-288zM768 672c-105.856 0-192-86.144-192-192s86.144-192 192-192c105.856 0 192 86.144 192 192s-86.144 192-192 192z" />
<glyph unicode="&#xe92c;" glyph-name="master" d="M1024 960v-1024h-1024v1024h1024zM964 777.984h-904v-782.016h904v782.016zM572 755.296l97.28-97.28h172.704v-412.704l97.28-97.28-127.296-127.296-127.296 127.296 97.28 97.28v352.704h-112.704l-97.28-97.28-127.296 127.296 127.296 127.296zM662.016 237.984v-180h-540v180h540zM812 190.432l-42.432-42.432 42.432-42.432 42.432 42.432-42.432 42.432zM602.016 177.984h-420v-60h420v60zM662.016 477.984v-180h-420v180h420zM602.016 417.984h-300v-60h300v60zM422.016 717.984v-180h-300v180h300zM572 670.432l-42.432-42.432 42.432-42.432 42.432 42.432-42.432 42.432zM362.016 657.984h-180v-60h180v60zM964 900h-904v-62.016h904v62.016z" />
<glyph unicode="&#xe92d;" glyph-name="top" horiz-adv-x="512" d="M484.352 739.232l-208 209.024c0 0-0.032 0.032-0.032 0.032-15.648 15.648-41.056 15.616-56.64 0 0 0-0.032-0.032-0.032-0.032l-208-209.024c-15.584-15.648-15.52-40.992 0.128-56.576s40.992-15.52 56.576 0.128l139.648 140.32v-847.104c0-22.080 17.92-40 40-40s40 17.92 40 40v847.104l139.648-140.32c15.584-15.648 40.896-15.712 56.576-0.128s15.712 40.928 0.128 56.576z" />
<glyph unicode="&#xe92e;" glyph-name="add-regula" d="M780 960v-184h198.528l-75.008-150.016 75.008-150.016h-198.528v-540h-660c-66.176 0-120 53.824-120 120v0 814.016c0 49.632 40.384 90.016 90.016 90.016v0h690.016zM720 116h-600c-33.088 0-60-26.912-60-60s26.912-60 60-60v0h600v120zM720 900h-630.016c-16.544 0-30.016-13.472-30.016-30.016v0-710.144c17.664 10.24 38.144 16.16 60 16.16v0h600v724zM420 776v-60h171.616l68.384-205.12v-4.864c0-49.632-40.384-90.016-90.016-90.016s-90.016 40.384-90.016 90.016v0 4.864l48.384 145.12h-108.384v-300h60v-60h-180v60h60v300h-108.384l48.384-145.12v-4.864c0-49.632-40.384-90.016-90.016-90.016s-90.016 40.384-90.016 90.016v0 4.864l68.384 205.12h171.616v60h60zM210.016 591.136l-29.728-89.184c1.984-14.624 14.56-25.952 29.728-25.952s27.744 11.328 29.728 25.952v0l-29.728 89.184zM570.016 591.136l-29.728-89.184c1.984-14.624 14.56-25.952 29.728-25.952s27.744 11.328 29.728 25.952v0l-29.728 89.184zM881.472 716h-101.472v-180h101.472l-44.992 90.016 44.992 90.016z" />
<glyph unicode="&#xe92f;" glyph-name="edit-request" horiz-adv-x="967" d="M716.8 960c56.528-0.062 102.338-45.872 102.4-102.4v0-144.466c45.051 16.14 95.269-1.153 120.832-41.609s19.62-93.234-14.298-126.993v0l-106.534-106.534v-399.599c-0.062-56.528-45.872-102.338-102.4-102.4v0h-614.4c-56.528 0.062-102.338 45.872-102.4 102.4v0 819.2c0.062 56.528 45.872 102.338 102.4 102.4v0zM716.8 891.733h-614.4c-18.844-0.017-34.116-15.289-34.133-34.133v0-819.2c0.017-18.844 15.289-34.116 34.133-34.133v0h614.4c18.844 0.017 34.116 15.289 34.133 34.133v0 331.332l-138.967-138.967c-4.766-4.757-10.83-8.004-17.432-9.332v0l-120.668-24.132c-11.186-2.139-22.71 1.349-30.833 9.332-8.075 8.068-11.578 19.641-9.332 30.833v0l24.132 120.702c1.322 6.605 4.569 12.67 9.332 17.432v0l283.767 283.767v198.233c-0.017 18.844-15.289 34.116-34.133 34.133v0zM862.181 649.924c-11.781 3.161-24.352-0.203-32.98-8.824v0l-306.452-306.466-12.066-60.365 60.317 12.066 306.466 306.466c8.628 8.622 12.001 21.191 8.848 32.974s-12.352 20.988-24.132 24.149zM443.733 618.667c18.851 0 34.133-15.282 34.133-34.133s-15.282-34.133-34.133-34.133v0h-238.933c-18.851 0-34.133 15.282-34.133 34.133s15.282 34.133 34.133 34.133v0zM614.4 755.2c18.851 0 34.133-15.282 34.133-34.133s-15.282-34.133-34.133-34.133v0h-409.6c-18.851 0-34.133 15.282-34.133 34.133s15.282 34.133 34.133 34.133v0z" />
<glyph unicode="&#xe930;" glyph-name="signed" d="M419.414 21.331h-302.078c-64.726 0-117.336 52.608-117.336 117.338v703.997c0 64.726 52.609 117.334 117.336 117.334h789.327c64.73 0 117.338-52.608 117.338-117.334v-311.040c0-17.663-14.336-32-32-32s-32 14.337-32 32v215.040h-896v-607.997c0-29.402 23.937-53.338 53.336-53.338h302.078c17.665 0 32-14.336 32-32s-14.335-32-32-32zM64 810.666h896v32c0 29.398-23.936 53.334-53.338 53.334h-789.327c-29.398 0-53.336-23.936-53.336-53.334v-32zM202.664 405.334h514.564c17.664 0 32 14.335 32 32s-14.336 32-32 32h-482.564v128h554.673v-64c0-17.665 14.336-32 32-32s32 14.335 32 32v96c0 17.664-14.336 32-32 32h-618.673c-17.664 0-32-14.336-32-32v-192c0-17.665 14.336-32 32-32zM511.875-54.611c6.015-6.061 14.203-9.389 22.609-9.389 1.875 0 3.711 0.173 5.594 0.467l128.21 22.618c6.445 1.107 12.416 4.224 17.062 8.87l316.762 316.8c29.101 29.146 29.101 76.504 0 105.602l-52.774 52.779c-15.494 15.53-35.206 21.718-55.558 17.451-14.714-3.072-29.011-11.478-42.49-24.961l-316.805-316.759c-4.609-4.646-7.719-10.624-8.875-17.062l-22.609-128.218c-1.836-10.323 1.492-20.819 8.875-28.198zM573.953 7.469l12.929 73.254 309.636 309.72c4.301 4.267 7.507 6.314 7.93 7.125l52.397-52.395c4.141-4.181 4.141-10.923 0-15.104l-309.632-309.672-73.26-12.928zM204.797 277.76h384.86c17.664 0 32 14.336 32 32s-14.336 32-32 32h-384.86c-17.664 0-32-14.336-32-32s14.336-32 32-32zM462.508 149.76h-257.711c-17.664 0-32 14.336-32 32s14.336 32 32 32h257.711c17.665 0 32-14.336 32-32s-14.335-32-32-32z" />
<glyph unicode="&#xe931;" glyph-name="single" d="M512 870.4c-233.285 0-422.4-189.115-422.4-422.4 0-233.283 189.115-422.4 422.4-422.4 233.283 0 422.4 189.117 422.4 422.4 0 233.285-189.117 422.4-422.4 422.4zM12.8 448c0 275.701 223.499 499.2 499.2 499.2s499.2-223.499 499.2-499.2c0-275.702-223.498-499.2-499.2-499.2s-499.2 223.498-499.2 499.2z" />
<glyph unicode="&#xe932;" glyph-name="bottom" horiz-adv-x="512" d="M11.648 156.768l208-209.024c0 0 0.032-0.032 0.032-0.032 15.648-15.648 41.056-15.616 56.64 0 0 0 0.032 0.032 0.032 0.032l208 209.024c15.584 15.648 15.52 40.992-0.128 56.576s-40.992 15.52-56.576-0.128l-139.648-140.32v847.104c0 22.080-17.92 40-40 40s-40-17.92-40-40v-847.104l-139.648 140.32c-15.584 15.648-40.896 15.712-56.576 0.128s-15.712-40.928-0.128-56.576z" />
<glyph unicode="&#xe933;" glyph-name="review" horiz-adv-x="967" d="M736.023 960c17.665 0 32.001-14.336 32.001-32.001v-626.036c92.479-35.151 155.264-112.203 177.926-143.612l5.177-7.369c2.778-4.070 4.199-6.368 4.199-6.368 6.24-10.208 6.24-23.073 0-33.281 0 0-108.388-175.333-283.305-175.333-93.027 0-167.206 49.57-216.295 95.971h-423.725c-8.48 0-16.641 3.36-22.625 9.376-6.017 5.984-9.376 14.144-9.376 22.625v864.027c0 17.665 14.337 32.001 32.001 32.001h704.022zM672.021 256.010c-112.068 0-189.606-89.987-217.383-128.036 27.777-38.049 105.315-128.036 217.383-128.036s189.606 89.987 217.383 128.036c-27.777 38.049-105.315 128.036-217.383 128.036zM672.021 223.977c52.962 0 96.003-43.009 96.003-96.003s-43.041-96.003-96.003-96.003c-52.994 0-96.003 43.009-96.003 96.003s43.009 96.003 96.003 96.003zM672.021 160.007c-17.696 0-32.033-14.368-32.033-32.033s14.337-32.033 32.033-32.033c17.665 0 32.001 14.368 32.001 32.033s-14.337 32.033-32.001 32.033zM704.022 895.998h-640.020v-800.025h335.242c-6.944 9.536-10.528 15.361-10.528 15.361-6.24 10.208-6.24 23.073 0 33.281 0 0 108.388 175.333 283.305 175.333 10.944 0 21.601-0.672 32.001-1.952v578.002zM384.012 447.984c17.665 0 32.001-14.336 32.001-32.001s-14.337-32.001-32.001-32.001h-160.005c-17.665 0-32.001 14.336-32.001 32.001s14.336 32.001 32.001 32.001h160.005zM544.017 575.988c17.665 0 32.001-14.336 32.001-32.001s-14.337-32.001-32.001-32.001h-320.010c-17.665 0-32.001 14.336-32.001 32.001s14.336 32.001 32.001 32.001h320.010zM544.017 703.992c17.665 0 32.001-14.336 32.001-32.001s-14.337-32.001-32.001-32.001h-320.010c-17.665 0-32.001 14.336-32.001 32.001s14.336 32.001 32.001 32.001h320.010z" />
<glyph unicode="&#xe934;" glyph-name="quick-assign" d="M871.908 182.082c82.834 0 151.984-69.15 151.984-151.984v0-89.99h-301.968v89.99c0 83.064 67.369 151.984 149.984 151.984zM151.984 182.082c82.616 0 149.984-68.92 149.984-151.984v0-89.99h-301.968v89.99c0 82.834 69.15 151.984 151.984 151.984zM511.946 182.082c82.616 0 149.984-68.92 149.984-151.984v0-89.99h-299.968v89.99c0 83.064 67.368 151.984 149.984 151.984zM511.946 122.089l-1.473-0.013c-48.512-0.823-88.519-42.248-88.519-91.978v0-29.998h179.982v29.998c0 50.233-40.818 91.99-89.99 91.99v0zM871.908 122.089l-1.472-0.013c-48.513-0.823-88.52-42.248-88.52-91.978v0-29.998h181.982v29.998c0 49.7-42.29 91.99-91.99 91.99v0zM151.984 122.089l-1.489-0.013c-49.053-0.834-90.503-42.774-90.503-91.978v0-29.998h181.982v29.998c0 50.233-40.818 91.99-89.991 91.99v0zM601.936 964.108l-0.001-182.091 222.404 0.001-240.034-239.969 317.599-0.005 0.006-123.769c51.748-13.322 89.985-60.298 89.985-116.206 0-66.268-53.72-119.987-119.988-119.987s-119.987 53.72-119.987 119.987c0 55.907 38.236 102.884 89.985 116.206l0.005 63.775-299.986 0.038 0.082-63.828c49.053-12.654 85.952-55.551 89.626-107.622l0.302-8.569c0-66.268-53.72-119.987-119.987-119.987s-119.987 53.72-119.987 119.987c0 55.887 38.208 102.85 89.928 116.191l0.019 63.828-299.927-0.038 0.008-63.775c51.748-13.322 89.984-60.298 89.984-116.206 0-66.268-53.72-119.987-119.987-119.987s-119.987 53.72-119.987 119.987c0 55.907 38.236 102.884 89.985 116.206l0.006 123.769 359.919 0.005 0.043 89.985h-188.849l308.837 332.073zM511.946 362.063c-33.134 0-59.994-26.86-59.994-59.994s26.86-59.994 59.994-59.994c33.134 0 59.993 26.86 59.993 59.994s-26.86 59.994-59.993 59.994zM871.908 362.063c-33.134 0-59.993-26.86-59.993-59.994s26.86-59.994 59.993-59.994c33.134 0 59.994 26.86 59.994 59.994s-26.86 59.994-59.994 59.994zM151.984 362.063c-33.134 0-59.993-26.86-59.993-59.994s26.86-59.994 59.993-59.994c33.134 0 59.994 26.86 59.994 59.994s-26.86 59.994-59.994 59.994zM541.943 811.505l-111.119-119.479 111.119 0.001-0.002-107.563 137.56 137.559h-137.558v89.481z" />
<glyph unicode="&#xe935;" glyph-name="give-comments" horiz-adv-x="1097" d="M219.431-27.426c0-14.080 8.083-26.846 20.694-32.956 5.083-2.412 10.5-3.618 15.875-3.618 8.153 0 16.236 2.708 22.861 8.010l264.264 211.416h444.307c60.484 0 109.705 49.226 109.705 109.716v585.144c0 60.488-49.22 109.714-109.705 109.714h-877.723c-60.486 0-109.709-49.226-109.709-109.714v-585.144c0-60.49 49.222-109.716 109.709-109.716h109.722v-182.852zM73.139 265.142v585.144c0 20.149 16.389 36.571 36.57 36.571h877.723c20.178 0 36.568-16.422 36.568-36.571v-585.144c0-20.15-16.39-36.568-36.568-36.568h-457.14c-8.347 0-16.347-2.816-22.861-8.010l-214.861-171.924v143.36c0 20.224-16.347 36.574-36.569 36.574h-146.291c-20.181 0-36.57 16.418-36.57 36.568zM877.71 630.857c0-20.187-16.35-36.571-36.574-36.571h-585.136c-20.222 0-36.569 16.384-36.569 36.571s16.347 36.572 36.569 36.572h585.136c20.224 0 36.574-16.384 36.574-36.572zM585.136 484.571c0-20.188-16.345-36.571-36.567-36.571h-292.569c-20.222 0-36.569 16.383-36.569 36.571s16.347 36.572 36.569 36.572h292.569c20.222 0 36.567-16.384 36.567-36.572z" />
<glyph unicode="&#xe936;" glyph-name="setting" d="M545.696 959.968c51.328-0.832 92.704-42.72 92.704-94.24v0-21.728l0.768-0.256c21.664-6.976 42.656-15.68 62.816-26.080v0l0.608-0.32 15.424 15.424c17.664 17.696 41.664 27.616 66.656 27.616s48.992-9.952 66.656-27.616v0l13.792-13.824c0.32-0.32 0.64-0.64 0.96-0.96v0l15.872-15.872c0.32-0.32 0.64-0.64 0.96-0.96v0l1.824-1.824c0.288-0.288 0.576-0.576 0.864-0.864v0l4.64-4.64c0.224-0.224 0.48-0.48 0.704-0.704l5.792-5.792c17.664-17.664 27.616-41.632 27.616-66.656s-9.92-48.992-27.616-66.688c-0.608-0.608-1.216-1.216-1.76-1.76v0l-8.224-8.224c-0.192-0.192-0.416-0.416-0.608-0.608l-4.8-4.8 0.32-0.608c10.4-20.16 19.104-41.152 26.080-62.784v0l0.256-0.768h21.728c52.064 0 94.272-42.208 94.272-94.272v0-65.824c-0.832-51.328-42.72-92.704-94.24-92.704v0h-21.728l-0.256-0.768c-6.976-21.664-15.68-42.656-26.080-62.784v0l-0.32-0.608 15.392-15.392c17.696-17.664 27.616-41.664 27.616-66.656s-9.952-48.992-27.616-66.656c-0.416-0.416-0.832-0.832-1.216-1.216v0l-1.12-1.12c-1.44-1.44-2.688-2.688-3.776-3.776l-0.8-0.8c-0.128-0.128-0.256-0.256-0.384-0.384v0l-3.744-3.744c-0.224-0.224-0.416-0.416-0.64-0.64l-5.568-5.568c-0.16-0.16-0.288-0.32-0.448-0.448v0l-16.352-16.352c-0.224-0.224-0.416-0.416-0.64-0.64v0l-3.808-3.808c-0.128-0.128-0.256-0.256-0.384-0.384v0l-6.528-6.528c-17.664-17.664-41.664-27.616-66.656-27.616s-48.992 9.92-66.688 27.616v0l-15.392 15.392-0.608-0.32c-20.16-10.4-41.152-19.104-62.816-26.080v0l-0.768-0.256v-21.728c0-52.064-42.208-94.272-94.272-94.272v0h-65.824c-51.328 0.832-92.704 42.72-92.704 94.24v0 21.728l-0.768 0.256c-21.632 6.976-42.656 15.68-62.816 26.080v0l-0.608 0.32-15.424-15.424c-17.664-17.696-41.664-27.616-66.656-27.616s-48.992 9.952-66.656 27.648c-0.672 0.672-1.344 1.344-1.984 1.984l-2.464 2.464c-0.384 0.384-0.768 0.768-1.152 1.152v0l-1.632 1.632c-0.352 0.352-0.704 0.704-1.024 1.024v0l-22.656 22.656c-0.384 0.384-0.736 0.736-1.12 1.12l-13.408 13.408c-17.696 17.664-27.616 41.664-27.616 66.656s9.92 48.992 27.616 66.688v0l15.392 15.392-0.32 0.608c-10.4 20.16-19.104 41.152-26.080 62.784v0l-0.256 0.768h-21.728c-52.064 0-94.272 42.208-94.272 94.272v0 65.824c0.832 51.328 42.72 92.704 94.24 92.704v0h21.728l0.256 0.768c6.976 21.664 15.68 42.656 26.080 62.784v0l0.32 0.608-6.624 6.624c-2.944 2.944-5.856 5.856-8.768 8.768-17.696 17.664-27.616 41.664-27.616 66.656s9.952 48.992 27.616 66.656v0l6.752 6.752c0.384 0.384 0.768 0.768 1.184 1.184v0l21.568 21.568c1.056 1.056 2.080 2.080 3.104 3.104v0l12.832 12.832c17.664 17.696 41.664 27.616 66.656 27.616s48.992-9.92 66.688-27.616v0l15.392-15.392 0.608 0.32c20.16 10.4 41.152 19.104 62.816 26.080v0l0.768 0.256v21.728c0 52.064 42.208 94.272 94.272 94.272v0zM544.16 899.968h-64.256c-18.912 0-34.272-15.328-34.272-34.272v0-44.288c0-13.696-9.248-25.632-22.496-29.056-32.288-8.32-63.104-21.152-91.648-38.048-11.776-6.976-26.816-5.088-36.48 4.608v0l-0.8 0.8c-0.064 0.064-0.128 0.128-0.192 0.192-0.64 0.64-0.96 0.96-1.344 1.344l-1.312 1.312c-0.352 0.352-0.672 0.672-0.96 0.96v0l-0.896 0.896c-1.152 1.152-2.208 2.208-3.488 3.488v0l-22.4 22.4c-6.432 6.432-15.136 10.048-24.224 10.048s-17.792-3.616-24.192-10.016v0l-7.136-7.136c-1.376-1.376-2.752-2.752-4.224-4.224l-4.576-4.576c-1.056-1.056-2.144-2.144-3.296-3.296v0l-14.496-14.496c-0.16-0.16-0.352-0.352-0.512-0.544l-5.568-5.568c-0.736-0.736-1.44-1.44-2.144-2.144v0l-3.488-3.488c-6.432-6.432-10.048-15.136-10.048-24.224s3.616-17.824 10.016-24.224v0l18.304-18.304c1.216-1.216 2.432-2.432 3.616-3.616 1.504-1.504 2.688-2.688 3.968-3.968v0l3.584-3.584c0.128-0.128 0.256-0.256 0.352-0.352l1.472-1.472c0.032-0.032 0.032-0.032 0.064-0.064 9.696-9.696 11.584-24.704 4.608-36.48-16.896-28.576-29.728-59.392-38.048-91.648-3.424-13.248-15.36-22.496-29.056-22.496v0h-44.288c-18.912 0-34.272-15.328-34.272-34.272v0-64.256c0-18.912 15.36-34.272 34.272-34.272v0h44.288c13.696 0 25.632-9.248 29.056-22.496 8.32-32.288 21.152-63.104 38.048-91.648 6.976-11.776 5.088-26.816-4.608-36.48-0.064-0.064-0.096-0.096-0.16-0.16v0l-1.952-1.952c-0.128-0.128-0.288-0.288-0.48-0.48v0l-24.448-24.448c-1.472-1.472-2.912-2.912-4.384-4.384-6.432-6.432-10.048-15.136-10.048-24.256s3.616-17.792 10.016-24.224v0l10.144-10.144c3.552-3.552 7.328-7.328 11.36-11.36l5.44-5.44c0.256-0.256 0.512-0.512 0.768-0.768l0.768-0.768c0.384-0.384 0.768-0.768 1.184-1.184v0l7.040-7.040c0.16-0.16 0.32-0.32 0.512-0.512v0l8.256-8.256c6.432-6.432 15.136-10.048 24.224-10.048s17.824 3.616 24.224 10.016v0l8.416 8.416c1.504 1.504 2.72 2.72 3.936 3.936v0l0.544 0.544c0.448 0.448 0.928 0.928 1.376 1.376v0l0.576 0.576c0.096 0.096 0.192 0.192 0.288 0.288v0l2.944 2.944c0.48 0.48 1.024 1.024 1.568 1.568l1.312 1.312c0.32 0.32 0.64 0.64 0.96 0.96 0.416 0.416 0.768 0.768 1.12 1.12v0l0.608 0.608c0.48 0.48 0.896 0.896 1.248 1.248v0l0.768 0.768c0.064 0.064 0.128 0.128 0.16 0.16v0l0.512 0.512c0.448 0.448 0.896 0.896 1.472 1.472v0l0.736 0.736c0.096 0.096 0.192 0.192 0.288 0.288l2.144 2.144c0.128 0.128 0.128 0.128 0.16 0.16v0c0.16 0.16 0.16 0.16 0.192 0.192v0c9.792 9.792 24.8 11.68 36.576 4.704 28.576-16.896 59.392-29.728 91.648-38.048 13.248-3.424 22.496-15.36 22.496-29.056v0-44.288c0-18.912 15.328-34.272 34.272-34.272v0h64.256c18.912 0 34.272 15.36 34.272 34.272v0 44.288c0 13.696 9.248 25.632 22.496 29.056 32.288 8.32 63.104 21.152 91.648 38.048 11.776 6.976 26.816 5.088 36.48-4.608v0l1.248-1.248c0.096-0.096 0.192-0.192 0.288-0.288v0l3.52-3.52c1.344-1.344 2.464-2.464 3.904-3.904v0l22.4-22.4c6.432-6.432 15.136-10.048 24.256-10.048s17.792 3.616 24.192 10.016v0l5.728 5.728c0.288 0.288 0.544 0.544 0.832 0.832l7.872 7.872c0.256 0.256 0.48 0.48 0.768 0.768l27.392 27.392c0.352 0.352 0.704 0.704 1.088 1.088v0l1.792 1.792c6.432 6.432 10.048 15.136 10.048 24.224s-3.616 17.824-10.016 24.224v0l-30.016 30.016c-0.448 0.448-0.704 0.704-0.896 0.896-0.288 0.288-0.384 0.384-0.512 0.512-9.696 9.696-11.584 24.704-4.608 36.48 16.896 28.544 29.728 59.392 38.048 91.648 3.424 13.248 15.36 22.496 29.056 22.496v0h44.288c18.912 0 34.272 15.36 34.272 34.272v0 64.256c0 18.912-15.36 34.272-34.272 34.272v0h-44.288c-13.696 0-25.632 9.248-29.056 22.496-8.32 32.288-21.152 63.104-38.048 91.68-6.976 11.776-5.088 26.816 4.608 36.48v0c0.288 0.288 0.416 0.416 0.64 0.64v0c0.256 0.256 0.352 0.352 0.48 0.48l4.448 4.448c0.864 0.864 1.888 1.888 3.904 3.904v0l3.456 3.456c0.128 0.128 0.256 0.256 0.384 0.384v0l4.384 4.384c0.096 0.096 0.192 0.192 0.288 0.288l1.952 1.952c0.096 0.096 0.192 0.192 0.288 0.288v0l2.144 2.144c1.088 1.088 2.336 2.336 3.808 3.808v0l5.28 5.28c6.432 6.432 10.048 15.136 10.048 24.224s-3.616 17.792-10.016 24.224v0l-7.616 7.616c-1.12 1.12-2.272 2.272-3.552 3.552l-3.168 3.136c-2.4 2.4-5.152 5.152-8.416 8.416-1.536 1.536-2.944 2.944-4.256 4.256l-1.12 1.12c-0.736 0.736-1.408 1.408-2.080 2.080v0l-0.992 0.992c-1.12 1.12-2.176 2.176-3.168 3.136v0l-0.832 0.832c-0.128 0.128-0.256 0.256-0.416 0.416l-0.8 0.8c-1.696 1.696-3.232 3.232-4.704 4.704v0l-4.416 4.416c-6.432 6.432-15.136 10.048-24.224 10.048s-17.824-3.616-24.224-10.048v0l-24.384-24.384c-1.6-1.6-3.072-3.072-4.448-4.448v0l-0.672-0.672c-0.448-0.448-0.768-0.768-1.024-1.024v0l-0.608-0.608c-0.192-0.192-0.224-0.224-0.288-0.288-9.696-9.696-24.704-11.584-36.48-4.608-28.576 16.896-59.392 29.728-91.648 38.048-13.248 3.424-22.496 15.36-22.496 29.056v0 44.288c0 18.912-15.36 34.272-34.272 34.272v0zM512 670.784c122.976 0 222.816-99.808 222.816-222.784s-99.808-222.784-222.784-222.784-222.816 99.808-222.816 222.784c0 122.976 99.808 222.816 222.816 222.816zM512 610.784c-89.856 0-162.816-72.96-162.816-162.784s72.96-162.784 162.816-162.784 162.816 72.96 162.816 162.784c0 89.856-72.96 162.816-162.784 162.816z" />
<glyph unicode="&#xe937;" glyph-name="user" d="M874.048 810.048c-96.704 96.704-225.28 149.952-362.048 149.952s-265.344-53.248-362.048-149.952c-96.704-96.704-149.952-225.28-149.952-362.048s53.248-265.344 149.952-362.048c96.704-96.704 225.28-149.952 362.048-149.952s265.344 53.248 362.048 149.952c96.704 96.704 149.952 225.28 149.952 362.048s-53.248 265.344-149.952 362.048zM222.208 101.408c16.896 145.472 141.984 257.792 289.792 257.792 77.92 0 151.2-30.368 206.304-85.472 46.56-46.56 75.936-107.36 83.488-172.32-78.528-65.76-179.616-105.408-289.792-105.408s-211.264 39.648-289.792 105.408zM512 420.992c-85.728 0-155.52 69.76-155.52 155.52s69.76 155.52 155.52 155.52 155.52-69.76 155.52-155.52c0-85.728-69.76-155.52-155.52-155.52zM853.44 152.128c-15.296 61.632-47.168 118.464-92.704 164-36.864 36.864-80.512 64.544-128.064 81.888 57.184 38.784 94.848 104.32 94.848 178.464 0 118.816-96.672 215.52-215.52 215.52s-215.52-96.672-215.52-215.52c0-74.208 37.696-139.744 94.944-178.528-43.776-15.968-84.288-40.608-119.136-73.088-50.464-47.008-85.504-106.944-101.76-172.704-68.832 79.328-110.528 182.784-110.528 295.808 0 249.248 202.752 452 452 452s452-202.752 452-452c0-113.056-41.728-216.544-110.56-295.872v0z" />
<glyph unicode="&#xe938;" glyph-name="refuse-withdraw" d="M777.136 581.788c0-18.086 14.655-32.764 32.768-32.764 18.079 0 32.762 14.663 32.762 32.764v345.446c0 18.085-14.655 32.766-32.762 32.766h-453.279c-4.597 0-8.958-0.938-12.917-2.649-3.764-1.608-7.278-3.951-10.348-7.038l-323.875-326.757c-9.306-9.392-12.042-23.469-6.958-35.681s17.014-20.163 30.236-20.163h323.861c18.111 0 32.764 14.663 32.764 32.764v293.993h387.747v-312.68zM323.889 633.243h-212.5l212.5 214.382v-214.382zM32.764-64h447.847c18.083 0 32.764 14.643 32.764 32.751 0 18.102-14.667 32.762-32.764 32.762h-415.083v505.886c0 18.085-14.667 32.764-32.764 32.764s-32.764-14.656-32.764-32.764v-538.648c0-18.085 14.681-32.751 32.764-32.751zM726.113-64c-164.279 0-297.904 133.643-297.904 297.893 0 164.256 133.625 297.895 297.904 297.895s297.887-133.639 297.887-297.895c0-164.25-133.609-297.893-297.887-297.893zM726.113 466.257c-128.142 0-232.376-104.227-232.376-232.364 0-57.617 21.083-110.404 55.917-151.051l327.5 327.499c-40.641 34.846-93.429 55.917-151.040 55.917zM925.138 353.729l-318.874-318.868c35.015-21.163 76.026-33.348 119.848-33.348 128.125 0 232.374 104.243 232.374 232.38 0 43.81-12.197 84.827-33.348 119.836z" />
<glyph unicode="&#xe939;" glyph-name="regulations" d="M596.896 960v-119.968l180-0.032v-119.968l180-0.032v-616.416l-167.584-167.584h-372.416v120.032l-180-0.032v120h-180v784h540zM896.896 660h-420v-664l269.952 0.032 0.064 149.984 149.952 0.032 0.032 513.952zM854.4 86.016h-47.52l-0.032-47.552 47.552 47.552zM716.896 780h-420v-664l120 0.064v603.936l299.968 0.032 0.032 59.968zM536.896 900h-420v-664l120 0.032v603.968l299.968 0.032 0.032 59.968zM836.896 296v-60h-300v60h300zM836.896 416v-60h-300v60h300zM836.896 536v-60h-300v60h300z" />
<glyph unicode="&#xe93a;" glyph-name="delete-process" d="M1013.806 702.719c5.905-5.818 9.711-13.764 10.155-22.596 0.028-0.583 0.040-1.17 0.040-1.76v-708.161c0-18.887-15.303-34.202-34.196-34.202h-836.985c-18.889 0-34.194 15.314-34.194 34.202v107.753c-68.375 18.711-118.625 81.289-118.625 155.597v312.223c0 74.309 50.25 136.884 118.625 155.597v224.429c0 18.887 15.305 34.2 34.194 34.2h585.957c9.364 0 17.835-3.757 24.013-9.844l251.017-247.438zM187.014 72.249v-67.851h768.583v639.766h-157.36c-51.723 0-93.65 41.945-93.65 93.677v153.76h-517.572v-184.521h286.334c89.083 0 161.305-72.22 161.305-161.306v-312.223c0-89.082-72.222-161.303-161.305-161.303h-286.334zM906.388 712.562l-133.404 131.504v-106.226c0-13.962 11.31-25.278 25.253-25.278h108.151zM68.403 233.552c0-51.308 41.597-92.905 92.903-92.905h312.042c51.319 0 92.917 41.597 92.902 92.905v312.223c0 51.311-41.583 92.906-92.902 92.906h-312.042c-51.306 0-92.903-41.595-92.903-92.906v-312.223zM196.917 257.007c13.986-12.692 35.625-11.645 48.319 2.338l72.098 79.434 72.097-79.434c12.694-13.983 34.319-15.030 48.305-2.338s15.028 34.321 2.334 48.31l-76.556 84.349 76.556 84.346c12.694 13.986 11.653 35.615-2.334 48.309s-35.611 11.647-48.305-2.339l-72.097-79.432-72.098 79.432c-12.694 13.986-34.333 15.033-48.319 2.339s-15.028-34.323-2.334-48.309l76.555-84.346-76.555-84.349c-12.694-13.989-11.653-35.618 2.334-48.31z" />
<glyph unicode="&#xe93b;" glyph-name="down-light" d="M985.088 654.304l-473.152-473.088-473.024 473.088 42.592 42.592 430.368-430.432 430.56 430.496 42.656-42.656z" />
<glyph unicode="&#xe93c;" glyph-name="collapse" d="M315.712 945.312c-31.392 31.392-84.256 9.088-84.256-34.688v-925.216c0-43.776 52.864-66.080 84.256-34.688l462.592 462.592c19.008 19.008 19.008 50.4 0 69.408l-462.592 462.592z" />
<glyph unicode="&#xe93d;" glyph-name="package" horiz-adv-x="810" d="M810.001 960h-690.001v-120h-120v-904h690v120.001h120.001v903.999zM690 375l-0.011 2.48c-0.671 40.636-17.488 77.344-44.322 103.979l-314.208 314.206c-27.167 27.381-64.833 44.334-106.458 44.334h-45v60h570v-783.998h-60.001v258.998zM603.637 438.64c16.293-16.287 26.362-38.787 26.362-63.639v-378.999h-569.999v783.999h165c24.847 0 47.347-10.074 63.639-26.361v-0.001l0.305-0.309c16.111-16.262 26.056-38.635 26.056-63.33v-225l226.486-0.013c24.111-0.39 45.903-10.258 61.849-26.037l0.302-0.312v0.001zM375 667.278l142.277-142.277h-142.277v142.277zM569.998 295.999v60.001h-449.998v-60.001h449.998zM120 175.997v60.001h449.998v-60.001h-449.998zM569.998 56.001v60.001h-449.998v-60.001h449.998z" />
<glyph unicode="&#xe93e;" glyph-name="process-copy" horiz-adv-x="1026" d="M68.403 861.156v-676.853c0-8.135 3.25-15.929 9.042-21.641 5.778-5.723 13.611-8.886 21.736-8.795h225.736v-68.403h-225.736c-26.264-0.091-51.5 10.28-70.111 28.826s-29.069 43.742-29.069 70.013v676.853c0 26.275 10.458 51.465 29.069 70.014 18.611 18.545 43.847 28.92 70.111 28.83h472.331c54.585 0 98.833-44.253 98.833-98.844v-19.153h-68.398v19.153c0 16.812-13.625 30.438-30.436 30.438h-472.664c-16.82 0-30.445-13.625-30.445-30.438zM789.026 810.194l228.124-280.795c5.791-6.361 8.96-14.663 8.903-23.257v-467.537c0.643-26.578-9.301-52.326-27.654-71.572-18.347-19.24-43.583-30.407-70.161-31.033h-488.405c-26.584 0.626-51.82 11.793-70.167 31.033-18.347 19.246-28.292 44.993-27.653 71.572v684.034c-0.639 26.58 9.306 52.326 27.653 71.569s43.583 30.41 70.167 31.035h319.445c2.833 0.406 5.706 0.406 8.556 0 8.761-2.028 16.39-7.434 21.191-15.049zM928.239 4.403c17.499 1.456 30.595 16.68 29.412 34.202v433.677h-133.052c-26.573 0.629-51.82 11.791-70.167 31.038-18.347 19.243-28.291 44.989-27.642 71.57v181.951h-286.956c-17.5-1.455-30.598-16.68-29.417-34.201v-684.034c-1.181-17.522 11.917-32.745 29.417-34.202h488.405zM920.030 540.344l-124.837 153.906v-119.704c-1.178-17.521 11.907-32.747 29.406-34.202h95.431zM481.555 380.621c0-18.887 15.32-34.202 34.208-34.202h336.193c18.893 0 34.207 15.314 34.207 34.202s-15.314 34.202-34.207 34.202h-336.193c-18.889 0-34.208-15.313-34.208-34.202zM515.764 263.652h336.193c18.893 0 34.207-15.309 34.207-34.202 0-18.887-15.314-34.202-34.207-34.202h-336.193c-18.889 0-34.208 15.314-34.208 34.202 0 18.893 15.32 34.202 34.208 34.202z" />
<glyph unicode="&#xe93f;" glyph-name="eraser" d="M989.338 702.502l-222.94 222.94c-46.135 46.077-120.873 46.077-167.008 0l-564.833-564.833c-46.077-46.135-46.077-120.873 0-167.008l178.431-178.824h-94.927c-21.754 0-39.389-17.635-39.389-39.389s17.635-39.389 39.389-39.389h787.772c21.754 0 39.388 17.635 39.388 39.389s-17.634 39.389-39.388 39.389h-437.214l520.718 520.717c46.077 46.135 46.077 120.873 0 167.008zM340.607 14.777c-10.333 0.044-20.235 4.146-27.572 11.423l-222.94 222.94c-15.272 15.363-15.272 40.175 0 55.538l136.678 136.679 278.477-278.478-136.678-136.678c-7.336-7.277-17.239-11.379-27.572-11.423h-0.394zM933.8 591.427l-373.010-373.010-278.477 278.478 373.010 373.010c15.363 15.272 40.175 15.272 55.538 0l222.94-224.909c14.012-15.108 14.012-38.461 0-53.569z" />
<glyph unicode="&#xe940;" glyph-name="position" horiz-adv-x="1152" d="M807.744 960v-135.104h344.256v-881.792h-1152v881.792h344.192l0.064 135.104h463.488zM1084.512 404.48c-58.112-74.144-148.512-121.792-250.048-121.792v0l-112.192 0.064 0.032-67.616h-292.672l-0.032 67.616-112.128-0.064c-101.536 0-191.904 47.648-250.048 121.792l0.032-393.888h1016.992zM654.848 350.24h-157.696v-67.616h157.696v67.616zM1084.512 757.376h-1016.992v-157.184c0-138.080 111.936-250.016 250.016-250.016v0h112.128l0.032 67.552h292.672l-0.032-67.552h112.192c133.76 0 242.976 105.056 249.696 237.152l0.32 12.864v157.184zM740.256 892.512h-328.512l-0.032-67.616h328.512l0.032 67.616z" />
<glyph unicode="&#xe941;" glyph-name="consul" horiz-adv-x="960" d="M780 368c60.64 0 110.016-49.344 110.016-110.016 0-23.296-7.296-44.896-19.712-62.688 52.768-23.264 89.696-76.032 89.696-137.312v0-92c0-16.576-13.44-30.016-30.016-30.016v0h-900c-16.576 0-30.016 13.44-30.016 30.016v0 92c0 61.28 36.928 114.048 89.696 137.312-12.416 17.792-19.68 39.424-19.68 62.688 0 60.64 49.344 110.016 110.016 110.016s110.016-49.344 110.016-110.016c0-23.296-7.296-44.896-19.712-62.688 23.744-10.464 44.288-26.88 59.712-47.392 15.392 20.512 35.968 36.928 59.712 47.392-12.384 17.792-19.712 39.424-19.712 62.688 0 60.64 49.344 110.016 110.016 110.016s110.016-49.344 110.016-110.016c0-23.296-7.296-44.896-19.712-62.688 23.744-10.464 44.288-26.88 59.712-47.392 15.392 20.512 35.968 36.928 59.712 47.392-12.384 17.792-19.712 39.424-19.712 62.688 0 60.64 49.344 110.016 110.016 110.016zM210.016 148h-60c-49.632 0-90.016-40.384-90.016-90.016v0-62.016h240v62.016c0 49.632-40.384 90.016-90.016 90.016v0zM510.016 148h-60c-49.632 0-90.016-40.384-90.016-90.016v0-62.016h240v62.016c0 49.632-40.384 90.016-90.016 90.016v0zM810.016 148h-60c-49.632 0-90.016-40.384-90.016-90.016v0-62.016h240v62.016c0 49.632-40.384 90.016-90.016 90.016v0zM780 308c-27.584 0-50.016-22.432-50.016-50.016s22.432-50.016 50.016-50.016c27.584 0 50.016 22.432 50.016 50.016s-22.432 50.016-50.016 50.016zM480 308c-27.584 0-50.016-22.432-50.016-50.016s22.432-50.016 50.016-50.016c27.584 0 50.016 22.432 50.016 50.016s-22.432 50.016-50.016 50.016zM180 308c-27.584 0-50.016-22.432-50.016-50.016s22.432-50.016 50.016-50.016c27.584 0 50.016 22.432 50.016 50.016s-22.432 50.016-50.016 50.016zM680 960c71.68 0 130.016-58.304 130.016-130.016v0-162.016c0-71.68-58.304-130.016-130.016-130.016v0h-169.44l-129.184-131.072c-5.76-5.824-13.504-8.928-21.376-8.928-16.48 0-29.984 13.376-29.984 30.016v0 110.016h-50.016c-71.68 0-130.016 58.304-130.016 130.016v0 162.016c0 71.68 58.304 130.016 130.016 130.016v0zM680 900h-400c-38.592 0-70.016-31.392-70.016-70.016v0-162.016c0-38.592 31.392-70.016 70.016-70.016v0h80c16.576 0 30.016-13.44 30.016-30.016v0-66.816l86.624 87.904c5.632 5.728 13.344 8.928 21.376 8.928v0h182.016c38.592 0 70.016 31.392 70.016 70.016v0 162.016c0 38.592-31.392 70.016-70.016 70.016v0zM600 717.984c16.576 0 30.016-13.44 30.016-30.016s-13.44-30.016-30.016-30.016v0h-300c-16.576 0-30.016 13.44-30.016 30.016s13.44 30.016 30.016 30.016v0zM660 837.984c16.576 0 30.016-13.44 30.016-30.016s-13.44-30.016-30.016-30.016v0h-360c-16.576 0-30.016 13.44-30.016 30.016s13.44 30.016 30.016 30.016v0z" />
<glyph unicode="&#xe942;" glyph-name="comment" d="M896 704c70.592 0 128-57.408 128-128v0-608c0-12.288-7.040-23.488-18.112-28.864-4.48-2.112-9.216-3.136-13.888-3.136-7.104 0-14.208 2.368-20.032 6.976v0l-151.232 121.024h-436.736c-70.592 0-128 57.408-128 128v0 32c0 17.664 14.336 32 32 32s32-14.336 32-32v0-32c0-35.264 28.672-64 64-64v0h448c7.232 0 14.336-2.496 19.968-6.976v0l108.032-86.4v541.376c0 35.264-28.672 64-64 64-17.664 0-32 14.336-32 32s14.336 32 32 32zM704 960c70.592 0 128-57.408 128-128v0-384c0-70.592-57.408-128-128-128v0h-468.416l-183.104-152.576c-5.824-4.864-13.12-7.424-20.48-7.424-4.608 0-9.28 1.024-13.568 3.008-11.264 5.248-18.432 16.576-18.432 28.992v0 640c0 70.592 57.408 128 128 128v0zM704 896h-576c-35.328 0-64-28.736-64-64v0-571.712l139.52 116.288c5.76 4.8 12.992 7.424 20.48 7.424v0h480c35.328 0 64 28.736 64 64v0 384c0 35.264-28.672 64-64 64v0zM480 640c17.664 0 32-14.336 32-32s-14.336-32-32-32v0h-256c-17.664 0-32 14.336-32 32s14.336 32 32 32v0zM608 768c17.664 0 32-14.336 32-32s-14.336-32-32-32v0h-384c-17.664 0-32 14.336-32 32s14.336 32 32 32v0z" />
<glyph unicode="&#xe943;" glyph-name="add-info" d="M587.584 493.376v434.624c0 17.664-14.336 32-32 32h-523.584c-17.664 0-32-14.336-32-32v-434.624c0-17.664 14.336-32 32-32h523.584c17.664 0 32 14.336 32 32zM523.584 896v-153.312h-459.584v153.312h459.584zM64 525.376v153.312h459.584v-153.312h-459.584zM470.144 602.016c0-17.664-14.336-32-32-32h-162.432c-17.664 0-32 14.336-32 32s14.336 32 32 32h162.432c17.664 0 32-14.336 32-32zM244.608 819.328c0 17.664 14.336 32 32 32h162.432c17.664 0 32-14.336 32-32s-14.336-32-32-32h-162.432c-17.664 0-32 14.336-32 32zM480.384 148.064c0-17.664-14.336-32-32-32h-230.944c-17.664 0-32 14.336-32 32v224.256c0 17.664 14.336 32 32 32s32-14.336 32-32v-192.256h198.944c17.664 0 32-14.336 32-32v0zM672.608 749.92c0 17.664 14.336 32 32 32h145.696c17.664 0 32-14.336 32-32v-226.24c0-17.664-14.336-32-32-32s-32 14.336-32 32v194.24h-113.696c-17.664 0-32 14.336-32 32zM969.696 411.68h-354.976c-29.952 0-54.304-24.384-54.304-54.304v-261.984c0-29.952 24.384-54.304 54.304-54.304h146.24v-41.056h-50.272c-17.664 0-32-14.336-32-32s14.336-32 32-32h163.040c17.664 0 32 14.336 32 32s-14.336 32-32 32h-48.768v41.056h144.736c29.952 0 54.304 24.384 54.304 54.304v261.984c0 29.952-24.384 54.304-54.304 54.304v0zM960 105.056h-335.616v242.624h335.616v-242.624zM113.536 819.328c0 19.264 15.712 35.008 35.008 35.008s35.008-15.712 35.008-35.008-15.712-35.008-35.008-35.008c-19.264 0-35.008 15.712-35.008 35.008zM183.552 602.016c0-19.264-15.712-35.008-35.008-35.008s-35.008 15.712-35.008 35.008c0 19.264 15.712 35.008 35.008 35.008s35.008-15.712 35.008-35.008z" />
<glyph unicode="&#xe944;" glyph-name="share" horiz-adv-x="960" d="M791.648 960c48 0 91.52-19.488 123.008-50.976 0.704-0.704 1.376-1.44 2.016-2.176 30.304-31.296 48.96-73.952 48.96-120.832 0-47.904-19.488-91.392-50.976-122.88l-0.128-0.128c-31.488-31.488-74.944-50.976-122.88-50.976s-91.392 19.488-122.88 50.976l-0.064 0.064-0.064-0.064-7.488 7.968-320.096-176.704c4.512-15.424 6.912-31.744 6.912-48.608 0-18.56-2.944-36.448-8.352-53.248l316.544-173.248c3.904 4.832 8.064 9.472 12.48 13.856 0.704 0.704 1.44 1.376 2.176 2.016 31.296 30.304 73.952 48.96 120.832 48.96 48.032 0 91.52-19.488 123.008-50.976s50.976-74.976 50.976-123.008-19.488-91.52-50.976-123.008c-0.704-0.704-1.472-1.408-2.24-2.048-31.36-30.272-73.952-48.928-120.768-48.928-48.032 0-91.552 19.488-123.040 50.976-0.704 0.704-1.408 1.472-2.048 2.24-30.272 31.36-48.928 73.952-48.928 120.8 0 14.048 1.664 27.744 4.832 40.832l-321.536 176.032c-1.312-1.408-2.656-2.784-4-4.16l0.064-0.064c-31.488-31.488-74.976-50.976-123.008-50.976s-91.552 19.488-123.008 50.976c-31.488 31.488-50.976 74.976-50.976 123.008 0 47.872 19.488 91.328 50.976 122.88l0.256 0.256c31.52 31.424 74.944 50.848 122.752 50.848 48.032 0 91.52-19.488 123.008-50.976 0.704-0.704 1.408-1.472 2.048-2.24l5.12-5.632 320.32 176.704c-4.448 15.392-6.848 31.68-6.848 48.48 0 48.032 19.488 91.552 50.976 123.040s74.976 50.976 123.008 50.976zM791.648 210.816c-27.072 0-51.68-10.624-69.76-27.872l-1.536-1.664c-18.24-18.24-29.536-43.456-29.536-71.328 0-27.136 10.624-51.712 27.84-69.728 0.576-0.512 1.152-1.024 1.696-1.568 18.24-18.24 43.456-29.536 71.328-29.536 27.136 0 51.712 10.624 69.728 27.84l1.568 1.696c18.24 18.24 29.536 43.456 29.536 71.296s-11.296 53.088-29.536 71.296c-18.24 18.24-43.456 29.536-71.296 29.536zM173.984 546.496c-27.936 0-53.152-11.264-71.296-29.408l-0.128-0.128c-18.144-18.144-29.408-43.36-29.408-71.296 0-27.84 11.296-53.056 29.536-71.296s43.456-29.536 71.296-29.536c27.84 0 53.056 11.296 71.296 29.536l0.064-0.064 0.064 0.064c18.144 18.144 29.408 43.36 29.408 71.296 0 27.136-10.624 51.712-27.84 69.728l-1.696 1.568c-18.24 18.24-43.456 29.536-71.296 29.536zM791.648 886.848c-27.84 0-53.056-11.296-71.328-29.536s-29.536-43.456-29.536-71.296c0-27.84 11.296-53.056 29.536-71.296l-0.064-0.064c18.24-18.208 43.488-29.472 71.392-29.472s53.152 11.264 71.36 29.472c18.208 18.24 29.472 43.488 29.472 71.36 0 27.072-10.624 51.68-27.872 69.76l-1.664 1.536c-18.24 18.24-43.456 29.536-71.296 29.536z" />
<glyph unicode="&#xe945;" glyph-name="editor" d="M120 630c0-16.568 13.431-30 30-30s30 13.432 30 30v90h242v-514c0-16.542-13.458-30-30-30h-60c-16.568 0-30-13.432-30-30s13.432-30 30-30h360c16.568 0 30 13.432 30 30s-13.432 30-30 30h-60c-16.542 0-30 13.458-30 30v514h242v-90c0-16.568 13.432-30 30-30s30 13.432 30 30v120c0 16.568-13.431 30-30 30h-724c-16.568 0-30-13.432-30-30v-120zM30 840c16.568 0 30 13.432 30 30v30h30c16.568 0 30 13.432 30 30s-13.432 30-30 30h-60c-16.568 0-30-13.432-30-30v-60c0-16.568 13.432-30 30-30zM934 900h30v-30c0-16.568 13.432-30 30-30s30 13.432 30 30v60c0 16.568-13.432 30-30 30h-60c-16.568 0-30-13.432-30-30s13.432-30 30-30zM210 900h62c16.568 0 30 13.432 30 30s-13.432 30-30 30h-62c-16.568 0-30-13.432-30-30s13.432-30 30-30zM392 900h60c16.568 0 30 13.432 30 30s-13.432 30-30 30h-60c-16.568 0-30-13.432-30-30s13.432-30 30-30zM572 900h60c16.568 0 30 13.432 30 30s-13.432 30-30 30h-60c-16.568 0-30-13.432-30-30s13.432-30 30-30zM752 900h62c16.568 0 30 13.432 30 30s-13.432 30-30 30h-62c-16.568 0-30-13.432-30-30s13.432-30 30-30zM30-64h60c16.568 0 30 13.432 30 30s-13.432 30-30 30h-30v30c0 16.568-13.432 30-30 30s-30-13.432-30-30v-60c0-16.568 13.432-30 30-30zM994 56c-16.568 0-30-13.432-30-30v-30h-30c-16.568 0-30-13.432-30-30s13.432-30 30-30h60c16.568 0 30 13.432 30 30v60c0 16.568-13.432 30-30 30zM210-4c-16.568 0-30-13.432-30-30s13.432-30 30-30h62c16.568 0 30 13.432 30 30s-13.432 30-30 30h-62zM392-4c-16.568 0-30-13.432-30-30s13.432-30 30-30h60c16.568 0 30 13.432 30 30s-13.432 30-30 30h-60zM572-4c-16.568 0-30-13.432-30-30s13.432-30 30-30h60c16.568 0 30 13.432 30 30s-13.432 30-30 30h-60zM752-4c-16.568 0-30-13.432-30-30s13.432-30 30-30h62c16.568 0 30 13.432 30 30s-13.432 30-30 30h-62zM30 116c16.568 0 30 13.432 30 30v60c0 16.568-13.432 30-30 30s-30-13.432-30-30v-60c0-16.568 13.432-30 30-30zM30 296c16.568 0 30 13.432 30 30v62c0 16.568-13.432 30-30 30s-30-13.432-30-30v-62c0-16.568 13.432-30 30-30zM30 478c16.568 0 30 13.432 30 30v62c0 16.568-13.432 30-30 30s-30-13.432-30-30v-62c0-16.568 13.432-30 30-30zM30 660c16.568 0 30 13.432 30 30v60c0 16.568-13.432 30-30 30s-30-13.432-30-30v-60c0-16.568 13.432-30 30-30zM1024 206c0 16.568-13.432 30-30 30s-30-13.432-30-30v-60c0-16.568 13.432-30 30-30s30 13.432 30 30v60zM1024 388c0 16.568-13.432 30-30 30s-30-13.432-30-30v-62c0-16.568 13.432-30 30-30s30 13.432 30 30v62zM1024 570c0 16.568-13.432 30-30 30s-30-13.432-30-30v-62c0-16.568 13.432-30 30-30s30 13.432 30 30v62zM1024 750c0 16.568-13.432 30-30 30s-30-13.432-30-30v-60c0-16.568 13.432-30 30-30s30 13.432 30 30v60z" />
<glyph unicode="&#xe946;" glyph-name="board" d="M0 960v-1024h1024v1024h-1024zM321.312-4h-261.312v261.344h261.312v-261.344zM321.312 317.344h-261.312v261.344h261.312v-261.344zM321.312 638.688h-261.312v261.312h261.312v-261.312zM642.656-4h-261.344v261.344h261.344v-261.344zM642.656 317.344h-261.344v261.344h261.344v-261.344zM642.656 638.688h-261.344v261.312h261.344v-261.312zM964-4h-261.344v261.344h261.344v-261.344zM964 317.344h-261.344v261.344h261.344v-261.344zM964 638.688h-261.344v261.312h261.344v-261.312z" />
<glyph unicode="&#xe947;" glyph-name="attach" horiz-adv-x="576" d="M547.712 209.856v428.64c0 19.776-15.968 35.712-35.712 35.712s-35.712-15.968-35.712-35.712v-428.64c0-111.68-90.72-202.432-202.432-202.432s-202.432 90.72-202.432 202.432v547.712c0 72.16 58.816 130.976 130.976 130.976s130.976-58.816 130.976-130.976v-512c0-32.864-26.688-59.52-59.52-59.52s-59.52 26.688-59.52 59.52v464.384c0 19.776-15.968 35.712-35.712 35.712s-35.712-15.968-35.712-35.712v-464.384c0-72.16 58.816-130.976 130.976-130.976s130.976 58.816 130.976 130.976v512c0 111.68-90.72 202.432-202.432 202.432s-202.432-90.72-202.432-202.432v-547.712c0-150.976 122.88-273.856 273.856-273.856s273.856 122.88 273.856 273.856z" />
<glyph unicode="&#xe948;" glyph-name="tree-unit" d="M71.396 483.726h238.137l0.049 59.53c0 19.728 15.993 35.721 35.721 35.721h476.279c19.727 0 35.721-15.993 35.721-35.721v-190.512c0-19.727-15.994-35.721-35.721-35.721h-476.279c-19.728 0-35.721 15.993-35.721 35.721l-0.049 59.587h-238.137v-261.973h238.137l0.049 59.503c0 19.728 15.993 35.721 35.721 35.721h619.163c19.727 0 35.721-15.993 35.721-35.721v-190.512c0-19.727-15.994-35.721-35.721-35.721h-619.163c-19.728 0-35.721 15.993-35.721 35.721l-0.049 59.556h-238.137l0.046-107.184c0-19.727-15.993-35.721-35.721-35.721s-35.721 15.993-35.721 35.721v952.558c0 19.728 15.993 35.721 35.721 35.721s35.721-15.993 35.721-35.721l-0.046-107.127h238.137l0.049 59.499c0 19.728 15.993 35.721 35.721 35.721h333.395c19.727 0 35.721-15.993 35.721-35.721v-190.512c0-19.728-15.994-35.721-35.721-35.721h-333.395c-19.728 0-35.721 15.993-35.721 35.721l-0.049 59.56h-238.137v-261.973zM928.744 174.14h-547.721v-119.070h547.721v119.070zM785.86 507.535h-404.837v-119.070h404.837v119.070zM642.977 840.93h-261.954v-119.070h261.954v119.070z" />
<glyph unicode="&#xe949;" glyph-name="send" horiz-adv-x="1088" d="M990.112 952.64c21.44 11.232 47.392 9.472 67.136-4.544 19.712-14.080 29.888-38.016 26.272-61.92v0l-119.456-788.512c-2.88-18.848-13.92-35.456-30.208-45.344-16.288-9.824-36.16-12-54.176-5.792-39.264 13.472-113.92 39.040-204 69.92-27.68-24.576-127.68-113.44-186.432-165.664-18.912-16.832-45.888-20.992-68.992-10.592-23.040 10.336-37.92 33.28-37.92 58.592v0l-0.064 218.208c-137.504 47.136-267.136 91.584-338.88 116.16-24.32 8.32-41.248 30.304-43.232 55.872s11.456 49.888 34.176 61.792c184.256 96.736 784.224 411.712 955.744 501.76zM457.984 191.104v-166.848l135.552 120.384c-43.84 15.040-89.632 30.72-135.552 46.464zM994.112 801.152l-514.944-537.344 412.096-141.28 102.848 678.624zM914.688 827.616l-821.696-431.392 307.328-105.376 514.336 536.768z" />
<glyph unicode="&#xe94a;" glyph-name="transfer" d="M856.896 353.696c13.856 14.016 36.48 14.144 50.496 0.288v0l70.72-69.92c36.544-36.16 36.64-94.944 0.192-131.2v0l-70.816-70.432c-13.984-13.888-36.576-13.856-50.496 0.128s-13.856 36.576 0.128 50.496v0l51.488 51.264h-221.504c-41.312 0-75.264-31.52-79.104-71.808l-0.352-7.648c0-44.16 34.912-79.456 78.528-79.456 19.712 0 35.712-16 35.712-35.712s-16-35.712-35.712-35.712c-83.232 0-149.952 67.456-149.952 150.88 0 83.328 67.552 150.88 150.88 150.88v0h218.112l-48.032 47.488c-12.608 12.48-13.984 32.032-4.032 46.048zM520.512 924.064c141.696 0 256.576-114.88 256.576-256.576 0-85.696-41.984-161.536-106.528-208.16 30.944-9.824 60.864-22.784 89.376-38.656 17.216-9.6 23.424-31.328 13.824-48.544s-31.328-23.424-48.544-13.824c-62.080 34.56-132 52.928-204.704 52.928l7.264-0.16-7.264-0.16c-2.784 0-5.568 0.032-8.32 0.128-197.056-3.744-364.608-143.744-404.416-335.008-5.472-26.24 14.304-50.688 40.864-50.688v0h297.6c19.712 0 35.712-16 35.712-35.712s-15.968-35.712-35.712-35.712v0h-297.6c-71.936 0-125.44 66.208-110.752 136.672 36.736 176.512 166.432 315.68 332.704 368.736-64.608 46.496-106.656 122.4-106.656 208.128 0 141.696 114.88 256.576 256.576 256.576zM520.512 852.672c-102.272 0-185.152-82.912-185.152-185.152s82.912-185.152 185.152-185.152l-7.872 0.224 7.872 0.096c2.368 0 4.736-0.032 7.072-0.064 98.976 3.584 178.080 85.024 178.080 184.896 0 102.272-82.912 185.152-185.152 185.152z" />
<glyph unicode="&#xe94b;" glyph-name="started" d="M608 960c8.512 0.032 16.672-3.296 22.72-9.28v0l192-192c5.984-6.048 9.344-14.208 9.28-22.72v0-128h-64v96h-128c-35.36 0-64 28.64-64 64v0 128h-480c-17.664 0-32-14.336-32-32v0-832c0-17.664 14.336-32 32-32v0h320v-64h-320c-53.024 0-96 42.976-96 96v0 832c0 53.024 42.976 96 96 96v0zM736 512c159.072 0 288-128.928 288-288s-128.928-288-288-288c-159.072 0-288 128.928-288 288s128.928 288 288 288zM736 448c-123.712 0-224-100.288-224-224s100.288-224 224-224c123.712 0 224 100.288 224 224s-100.288 224-224 224zM758.72 342.72l96-96c11.040-11.104 12.256-28.256 3.68-40.704l-3.68-4.416-96-96-45.12 45.12 41.28 41.28h-146.88v64h146.88l-41.28 41.6 45.12 45.12z" />
<glyph unicode="&#xe94c;" glyph-name="printer" horiz-adv-x="1152" d="M862.464 960c20.288 0 36.736-16.448 36.736-36.736v0-212.544h116.864c47.264 0 85.696-38.432 85.696-85.696v0-369.472c0-47.264-38.432-85.696-85.696-85.696v0h-116.864v-197.152c0-20.288-16.448-36.736-36.736-36.736v0h-623.2c-20.288 0-36.736 16.448-36.736 36.736v0 197.152h-116.864c-47.264 0-85.696 38.432-85.696 85.696v0 369.472c0 47.264 38.432 85.696 85.696 85.696v0h116.864v212.544c0 20.288 16.448 36.736 36.736 36.736v0zM825.76 309.92h-549.76v-300.448h549.76v300.448zM1016.064 637.28h-930.368c-6.752 0-12.256-5.504-12.256-12.256v0-369.472c0-6.752 5.504-12.256 12.256-12.256v0h116.864v103.328c0 20.288 16.448 36.736 36.736 36.736v0h623.2c20.288 0 36.736-16.448 36.736-36.736v0-103.328h116.864c6.752 0 12.256 5.504 12.256 12.256v0 369.472c0 6.752-5.504 12.256-12.256 12.256v0zM862.464 568.544c20.288 0 36.736-16.448 36.736-36.736s-16.448-36.736-36.736-36.736v0h-93.472c-20.288 0-36.736 16.448-36.736 36.736s16.448 36.736 36.736 36.736v0zM825.76 886.56h-549.76v-175.808h549.76v175.808z" />
<glyph unicode="&#xe94d;" glyph-name="home" horiz-adv-x="1184" d="M557.184 950.272c14.208 13.056 36.128 12.96 50.208-0.224v0l535.392-500.928c14.88-13.92 15.648-37.28 1.728-52.192s-37.28-15.68-52.192-1.728v0l-67.136 62.752 0.032-485.024c0-18.528-13.664-33.888-31.456-36.512l-5.472-0.384h-276.928c-20.384 0-36.928 16.544-36.928 36.928v0 232.608h-185.856v-232.608c0-20.384-16.544-36.928-36.928-36.928v0h-275.68c-20.384 0-36.928 16.544-36.928 36.928v0l-0.032 492.928-77.12-70.88c-5.664-5.216-12.544-8.32-19.616-9.344l-5.344-0.384c-9.984 0-19.936 4-27.2 11.968-13.792 15.008-12.8 38.368 2.208 52.16v0zM581.92 872.736l-369.056-339.040 0.032-523.84h201.856v232.608c0 20.384 16.544 36.928 36.928 36.928v0h259.68c20.384 0 36.928-16.544 36.928-36.928v0-232.608h203.072l-0.032 517.216-369.408 345.664z" />
<glyph unicode="&#xe94e;" glyph-name="folder-bg" horiz-adv-x="1317" d="M1193.143 795.429h-493.714l-164.571 164.571h-411.429c-68.169 0-123.429-55.26-123.429-123.429v-740.571c0-68.169 55.26-123.429 123.429-123.429h1069.714c68.169 0 123.429 55.259 123.429 123.429v576c0 68.168-55.259 123.429-123.429 123.429z" />
<glyph unicode="&#xe94f;" glyph-name="folder-open-bg" horiz-adv-x="1317" d="M1309.016 373.475l-165.544-319.254c-12.88-24.847-31.327-45.458-53.497-59.787-22.17-14.321-47.287-21.862-72.858-21.862h-914.203c-42.338 0-68.718 51.668-47.385 92.811l165.541 319.255c12.883 24.845 31.329 45.458 53.5 59.783s47.291 21.865 72.859 21.865h914.205c42.335 0 68.718-51.667 47.382-92.811zM347.429 548.571h749.714v123.429c0 68.168-49.123 123.429-109.714 123.429h-365.714l-146.286 164.571h-365.714c-60.594 0-109.714-55.26-109.714-123.429v-714.979l157.891 304.507c39.17 75.543 111.799 122.472 189.538 122.472z" />
<glyph unicode="&#xe950;" glyph-name="db-user" horiz-adv-x="908" d="M554.853-16.604h-40.749l-34.062 223.35h-1.179l33.348 61.311h-133.46l33.471-61.311h-1.281l-33.889-223.35h-40.875l-63.127 332.172c6.123 0.469 12.439 0.933 18.668 0.933h307.573c6.368 0 12.593-0.464 18.718-0.933l-63.156-332.172zM275.728 345.67c-152.275 0-275.728-123.518-275.728-275.757v-133.806h891.083v133.806c0 152.24-123.452 275.757-275.684 275.757h-339.67zM152.226 666.636c0-162.051 131.223-293.351 293.339-293.351 161.962 0 293.266 131.3 293.266 293.351 0 162.057-131.304 293.364-293.266 293.364-162.117 0-293.339-131.308-293.339-293.364z" />
</font>
</defs>
</svg>
